<svg width="1440" height="718" viewBox="0 0 1440 718" fill="none" xmlns="http://www.w3.org/2000/svg">
<g clip-path="url(#clip0_268_353)">
<rect width="1440" height="718" fill="#F5F5F5"/>
<path d="M0 645.607L1440 417V718H0V645.607Z" fill="#F0AC27"/>
<mask id="mask0_268_353" style="mask-type:luminance" maskUnits="userSpaceOnUse" x="236" y="602" width="221" height="92">
<path d="M456.82 602H236.82V694H456.82V602Z" fill="white"/>
</mask>
<g mask="url(#mask0_268_353)">
<g opacity="0.3">
<path d="M372.117 650.685C365.212 653.978 356.245 655.841 347.283 655.844C338.325 655.847 329.27 653.991 322.228 649.743C316.555 646.32 312.645 642.249 308.652 637.328C305.033 632.868 301.948 626.251 299.744 620.837C299.398 619.988 299.045 618.776 298.662 617.46C298.586 617.199 298.509 616.934 298.43 616.667C297.944 615.015 297.386 613.21 296.687 611.535C295.984 609.85 295.164 608.364 294.186 607.311C293.224 606.275 292.156 605.705 290.9 605.705H267.94C266.652 605.705 265.519 606.397 264.672 607.561C263.838 608.707 263.339 610.245 263.318 611.76V611.858C263.318 619.104 264.272 624.779 266.391 631.396C268.023 636.489 269.674 640.921 271.764 645.801M372.117 650.685L371.691 649.792M372.117 650.685C381.356 646.279 387.937 639.783 393.46 631.49C398.252 624.293 400.286 617.763 401.758 613.04C401.795 612.921 401.831 612.803 401.868 612.686C402.619 610.276 403.201 608.483 403.912 607.277C404.259 606.691 404.602 606.305 404.954 606.065C405.292 605.835 405.685 605.705 406.206 605.705H433.757C433.986 605.705 434.374 605.852 434.895 606.367C435.395 606.862 435.901 607.585 436.357 608.436C437.282 610.161 437.869 612.165 437.869 613.388C437.869 617.453 436.576 623.677 434.727 629.875C432.882 636.06 430.525 642.079 428.47 645.722L428.336 645.96C425.74 650.562 423.563 654.421 420.503 658.494M271.764 645.801C273.658 650.225 276.298 654.49 278.867 658.351C293.19 679.88 317.379 693.012 343.962 693.012C359.754 693.012 373.148 692.131 386.744 685.794C393.983 682.42 402.663 677.514 408.177 671.993M271.764 645.801L270.854 646.19M420.503 658.494L421.294 659.089M420.503 658.494C420.085 659.05 419.699 659.584 419.325 660.099C418.272 661.553 417.326 662.86 416.095 664.096C415.231 664.963 414.565 665.779 413.945 666.538C413.85 666.654 413.756 666.769 413.663 666.883C412.957 667.742 412.261 668.551 411.291 669.401C410.795 669.835 410.427 670.11 410.052 670.391C409.973 670.449 409.894 670.509 409.814 670.569C409.338 670.928 408.852 671.318 408.177 671.993M408.177 671.993L408.877 672.693" stroke="#1D4ED8" stroke-width="1.97941"/>
</g>
</g>
<mask id="mask1_268_353" style="mask-type:luminance" maskUnits="userSpaceOnUse" x="506" y="533" width="223" height="171">
<path d="M705.549 533.571L506.703 567.953L530.146 703.53L728.992 669.148L705.549 533.571Z" fill="white"/>
</mask>
<g mask="url(#mask1_268_353)">
<g opacity="0.35">
<path d="M687.512 648.483C686.867 649.402 686.392 650.243 685.95 651.026C685.883 651.146 685.816 651.264 685.749 651.382C685.245 652.269 684.743 653.109 683.999 654.029C683.619 654.498 683.329 654.804 683.034 655.117C682.972 655.182 682.91 655.248 682.847 655.315C682.473 655.714 682.094 656.142 681.59 656.858M687.512 648.483L688.255 649.005M687.512 648.483C688.431 647.173 689.083 645.844 689.807 644.366C690.064 643.841 690.33 643.298 690.621 642.731M681.59 656.858L682.316 657.37M681.59 656.858C677.469 662.71 670.39 668.501 664.374 672.682C653.076 680.534 641.107 683.424 626.834 685.892C602.807 690.046 578.892 681.957 562.582 664.737C559.656 661.648 556.604 658.206 554.2 654.503M690.621 642.731L691.406 643.133M690.621 642.731C692.75 638.571 694.115 634.743 695.742 630.178L695.826 629.942C697.114 626.328 698.303 620.519 699.005 614.64C699.707 608.75 699.903 602.922 699.268 599.248C699.077 598.143 698.232 596.423 697.127 595.008C696.582 594.31 696.012 593.736 695.482 593.367C694.931 592.982 694.557 592.91 694.35 592.946L669.448 597.252C668.978 597.333 668.642 597.512 668.373 597.773C668.092 598.045 667.842 598.447 667.621 599.031C667.166 600.232 666.921 601.944 666.619 604.24C666.604 604.351 666.589 604.463 666.574 604.577C665.983 609.076 665.165 615.296 661.958 622.549M554.2 654.503L553.574 654.909M554.2 654.503C551.549 650.419 549.364 646.672 547.093 642.323C544.143 636.674 542.394 631.693 541.262 625.145L541.246 625.056L576.359 627.087L575.588 627.567C578.426 632.116 582.248 637.614 586.217 641.081C590.595 644.905 594.765 647.972 600.428 650.18M600.428 650.18C607.456 652.919 615.931 653.181 624.027 651.778C632.127 650.375 639.941 647.29 645.667 643.235M600.428 650.18L600.749 649.357M645.667 643.235C653.329 637.808 658.262 630.908 661.958 622.549M645.667 643.235L645.16 642.518M661.958 622.549L661.178 622.205" stroke="#1D4ED8" stroke-width="1.81562"/>
<path d="M515.565 577.871C517.972 577.569 519.717 577.261 521.454 576.954C521.853 576.883 522.252 576.813 522.659 576.742C524.838 576.365 527.199 576 530.913 575.672L531.572 575.613L531.829 576.222C532.579 577.995 532.986 580.351 533.353 582.737C533.406 583.086 533.459 583.437 533.512 583.788C533.829 585.885 534.148 587.999 534.649 589.923C535.236 592.178 536.039 594.017 537.245 595.183C538.394 596.295 540.01 596.892 542.505 596.461L563.257 592.873C565.266 592.525 566.413 591.453 567.065 589.951C567.746 588.386 567.899 586.314 567.733 584.046C567.569 581.795 567.1 579.451 566.619 577.395C566.44 576.625 566.254 575.88 566.084 575.196C565.811 574.1 565.576 573.158 565.465 572.515C565.309 571.614 565.519 570.815 566.051 570.165C566.55 569.556 567.28 569.142 568.06 568.839C569.612 568.237 571.761 567.928 573.922 567.65C574.194 567.615 574.466 567.581 574.739 567.546C576.69 567.299 578.659 567.05 580.402 566.635C582.418 566.155 583.92 565.497 584.728 564.556C585.217 563.986 585.758 563.214 586.131 562.366C586.506 561.512 586.685 560.645 586.547 559.846L582.799 538.172C582.403 535.883 579.335 533.033 574.91 533.782C573.758 533.977 572.541 534.216 571.289 534.463L571.109 534.498C569.918 534.733 568.699 534.974 567.494 535.186C564.978 535.628 562.457 535.958 560.31 535.834L559.746 535.801L559.526 535.281C558.871 533.731 558.55 531.465 558.247 529.136C558.218 528.916 558.19 528.695 558.161 528.473C557.878 526.279 557.583 523.988 557.06 521.895C556.482 519.578 555.658 517.648 554.394 516.412C553.187 515.231 551.478 514.589 548.85 515.043L529.021 518.472C525.127 519.145 523.105 522.558 523.714 526.536C523.839 527.357 524.085 528.572 524.371 529.99L524.381 530.042C524.669 531.47 524.993 533.08 525.259 534.623C525.525 536.161 525.739 537.666 525.8 538.879C525.83 539.483 525.824 540.051 525.756 540.53C525.694 540.961 525.557 541.524 525.154 541.904C524.528 542.496 523.653 542.852 522.734 543.096C521.8 543.344 520.712 543.503 519.571 543.633C518.89 543.71 518.19 543.778 517.481 543.846C515.763 544.012 513.987 544.183 512.283 544.515C509.877 544.983 507.84 545.735 506.535 547.066C505.334 548.29 504.628 550.138 505.069 553.135L506.547 554.178L505.282 554.396L508.237 571.486C508.608 573.629 509.51 575.347 510.759 576.46C511.992 577.558 513.614 578.115 515.565 577.871ZM515.565 577.871L515.678 578.772" stroke="#1D4ED8" stroke-width="1.81562"/>
<path d="M632.846 556.115L629.497 536.747C629.305 535.639 629.781 534.116 630.748 532.745C631.714 531.375 632.989 530.415 634.097 530.224L697.274 519.299C698.486 519.09 700.006 519.543 701.328 520.476C702.65 521.408 703.587 522.687 703.797 523.9L707.066 542.806C707.63 546.066 705.344 549.307 702.085 549.87L639.369 560.715C638.157 560.924 636.637 560.471 635.315 559.539C633.993 558.606 633.055 557.327 632.846 556.115Z" stroke="#1D4ED8" stroke-width="1.81562"/>
</g>
</g>
<mask id="mask2_268_353" style="mask-type:luminance" maskUnits="userSpaceOnUse" x="787" y="457" width="275" height="261">
<path d="M999.51 457.343L787.89 525.099L849.487 717.484L1061.11 649.728L999.51 457.343Z" fill="white"/>
</mask>
<g mask="url(#mask2_268_353)">
<g opacity="0.5">
<path d="M964.814 635.517C959.333 640.673 951.49 645.108 943.095 647.8C934.702 650.49 925.661 651.468 917.79 649.6C911.448 648.095 906.563 645.454 901.345 642.041C896.617 638.947 891.742 633.674 888.053 629.262C887.474 628.57 886.779 627.54 886.025 626.422C885.876 626.201 885.724 625.976 885.57 625.749C884.619 624.346 883.555 622.822 882.396 621.461C881.231 620.093 880.016 618.945 878.783 618.251C877.569 617.568 876.394 617.353 875.214 617.731L853.699 624.62C852.487 625.007 851.631 625.999 851.186 627.346C850.748 628.672 850.742 630.265 851.177 631.693L851.207 631.786C853.381 638.576 855.978 643.61 859.95 649.175C863.007 653.459 865.885 657.116 869.307 661.062M964.814 635.517L964.154 634.815M964.814 635.517C972.149 628.618 976.366 620.556 979.053 611.129C981.384 602.95 981.332 596.22 981.293 591.353C981.292 591.23 981.291 591.109 981.29 590.988C981.271 588.505 981.278 586.648 981.584 585.304C981.732 584.649 981.939 584.184 982.198 583.851C982.446 583.534 982.778 583.292 983.267 583.135L1009.08 574.869C1009.3 574.799 1009.71 574.822 1010.36 575.149C1010.98 575.464 1011.67 575.99 1012.35 576.65C1013.74 577.991 1014.89 579.694 1015.26 580.842C1016.47 584.652 1017.14 590.874 1017.26 597.237C1017.39 603.587 1016.98 609.936 1016.15 613.968L1016.09 614.231C1015.04 619.322 1014.17 623.592 1012.52 628.327M869.307 661.062C872.41 664.64 876.164 667.846 879.73 670.694C899.614 686.572 926.225 691.622 951.139 683.645C965.938 678.908 978.228 674.062 989.069 664.043C994.841 658.709 1001.5 651.506 1005.02 644.677M869.307 661.062L868.578 661.694M1012.52 628.327L1013.38 628.627M1012.52 628.327C1012.3 628.973 1012.09 629.589 1011.9 630.184C1011.34 631.863 1010.84 633.373 1010.06 634.901C1009.52 635.972 1009.14 636.935 1008.79 637.834C1008.73 637.971 1008.68 638.106 1008.62 638.241C1008.22 639.259 1007.81 640.226 1007.15 641.314C1006.82 641.87 1006.56 642.238 1006.29 642.614C1006.24 642.693 1006.18 642.772 1006.12 642.853C1005.79 643.331 1005.45 643.841 1005.02 644.677M1005.02 644.677L1005.88 645.118" stroke="#1D4ED8" stroke-width="1.97941"/>
<path d="M802.495 561.943L803.793 561.527L802.085 560.648C801.17 557.524 801.646 555.452 802.743 553.97C803.934 552.36 805.99 551.257 808.477 550.404C810.239 549.799 812.101 549.354 813.901 548.922C814.645 548.745 815.378 548.57 816.09 548.387C817.282 548.08 818.414 547.748 819.37 547.347C820.309 546.952 821.184 546.445 821.761 545.725C822.129 545.264 822.192 544.649 822.193 544.182C822.195 543.664 822.117 543.061 821.996 542.423C821.751 541.144 821.301 539.578 820.791 537.983C820.279 536.382 819.696 534.721 819.179 533.247L819.16 533.192C818.646 531.729 818.205 530.473 817.95 529.621C816.712 525.48 818.356 521.547 822.399 520.253L842.958 513.671C845.685 512.797 847.598 513.227 849.06 514.305C850.587 515.432 851.75 517.362 852.708 519.739C853.574 521.886 854.228 524.277 854.854 526.566C854.917 526.797 854.98 527.028 855.043 527.257C855.71 529.687 856.387 532.046 857.312 533.594L857.62 534.109L858.218 534.061C860.515 533.874 863.144 533.15 865.752 532.307C867 531.904 868.261 531.467 869.491 531.041L869.676 530.977C870.97 530.529 872.228 530.095 873.423 529.717C878.018 528.264 881.706 530.838 882.468 533.217L889.662 555.689C889.928 556.52 889.867 557.47 889.594 558.433C889.323 559.391 888.863 560.292 888.427 560.971C887.707 562.092 886.206 563.015 884.134 563.825C882.343 564.524 880.288 565.08 878.251 565.633C877.967 565.71 877.682 565.787 877.4 565.865C875.145 566.48 872.909 567.126 871.35 567.995C870.567 568.433 869.855 568.979 869.415 569.699C868.948 570.466 868.844 571.342 869.143 572.274C869.355 572.94 869.744 573.906 870.197 575.03C870.479 575.731 870.787 576.496 871.092 577.287C871.907 579.401 872.754 581.822 873.263 584.19C873.775 586.576 873.919 588.801 873.427 590.567C872.956 592.262 871.895 593.575 869.808 594.243L848.293 601.131C845.703 601.96 843.894 601.565 842.505 600.552C841.05 599.49 839.924 597.653 838.965 595.344C838.148 593.374 837.495 591.174 836.847 588.993C836.739 588.629 836.631 588.263 836.522 587.901C835.778 585.42 834.997 582.978 833.939 581.207L833.579 580.605L832.895 580.763C828.997 581.662 826.543 582.4 824.284 583.123C823.863 583.259 823.449 583.392 823.036 583.527C821.236 584.11 819.428 584.697 816.914 585.375C814.875 585.924 813.066 585.572 811.591 584.587C810.097 583.588 808.883 581.894 808.171 579.671L802.495 561.943Z" stroke="#1D4ED8" stroke-width="1.97941"/>
<path d="M938.28 544.866L931.852 524.784C931.483 523.633 931.763 521.941 932.587 520.341C933.411 518.74 934.626 517.529 935.778 517.16L1001.28 496.188C1002.54 495.785 1004.22 496.042 1005.77 496.837C1007.32 497.633 1008.5 498.855 1008.91 500.115L1015.18 519.717C1016.26 523.102 1014.31 526.89 1010.93 527.973L945.905 548.792C944.646 549.195 942.96 548.938 941.416 548.143C939.872 547.348 938.684 546.125 938.28 544.866Z" stroke="#1D4ED8" stroke-width="1.97941"/>
</g>
</g>
<mask id="mask3_268_353" style="mask-type:luminance" maskUnits="userSpaceOnUse" x="1197" y="464" width="243" height="220">
<path d="M1439.82 464H1197.82V684H1439.82V464Z" fill="white"/>
</mask>
<g mask="url(#mask3_268_353)">
<g opacity="0.1">
<path d="M1226.98 593.536V593.644C1226.98 601.613 1228.02 607.854 1230.36 615.132C1232.15 620.734 1233.97 625.608 1236.26 630.976M1226.98 593.536L1267.02 603.525M1226.98 593.536C1227 591.871 1227.55 590.182 1228.46 588.923C1229.39 587.645 1230.64 586.886 1232.05 586.886H1257.3C1258.68 586.886 1259.85 587.512 1260.91 588.649C1261.98 589.806 1262.89 591.44 1263.66 593.292C1264.43 595.135 1265.04 597.119 1265.58 598.937C1265.66 599.23 1265.75 599.522 1265.83 599.809C1266.25 601.256 1266.64 602.59 1267.02 603.525M1236.26 630.976L1235.39 631.35M1236.26 630.976C1238.35 635.842 1241.25 640.532 1244.08 644.78C1259.83 668.458 1286.43 682.902 1315.67 682.902C1333.04 682.902 1347.77 681.932 1362.73 674.963C1370.69 671.252 1380.24 665.855 1386.3 659.784M1267.02 603.525C1269.45 609.48 1272.84 616.76 1276.82 621.668C1281.21 627.082 1285.52 631.56 1291.76 635.327C1299.51 640.001 1309.47 642.043 1319.33 642.039C1329.19 642.036 1339.05 639.986 1346.65 636.364M1386.3 659.784L1387.05 660.531M1386.3 659.784C1387.04 659.041 1387.58 658.612 1388.1 658.217C1388.19 658.15 1388.28 658.085 1388.36 658.02C1388.78 657.712 1389.18 657.409 1389.73 656.933C1390.79 655.998 1391.56 655.109 1392.33 654.163C1392.44 654.039 1392.54 653.912 1392.64 653.784C1393.33 652.949 1394.06 652.052 1395.01 651.097C1396.36 649.738 1397.4 648.301 1398.56 646.703C1398.97 646.136 1399.4 645.548 1399.86 644.937M1399.86 644.937L1400.74 645.597M1399.86 644.937C1403.22 640.457 1405.62 636.212 1408.47 631.15L1408.62 630.889C1410.88 626.883 1413.47 620.262 1415.5 613.459C1417.54 606.642 1418.96 599.796 1418.96 595.327C1418.96 593.984 1418.31 591.782 1417.3 589.885C1416.8 588.949 1416.24 588.155 1415.69 587.612C1415.12 587.046 1414.69 586.886 1414.45 586.886H1384.14C1383.57 586.886 1383.14 587.029 1382.77 587.281C1382.38 587.544 1382.01 587.966 1381.63 588.61C1380.85 589.935 1380.21 591.906 1379.38 594.558C1379.34 594.686 1379.3 594.816 1379.26 594.947C1377.64 600.142 1375.4 607.327 1370.13 615.245M1370.13 615.245L1369.21 614.635M1370.13 615.245C1364.05 624.368 1356.81 631.516 1346.65 636.364M1346.65 636.364L1346.17 635.371" stroke="#1D4ED8" stroke-width="2.2"/>
<mask id="mask4_268_353" style="mask-type:luminance" maskUnits="userSpaceOnUse" x="1197" y="464" width="98" height="98">
<path fill-rule="evenodd" clip-rule="evenodd" d="M1197.82 501.601V523.49C1197.82 529.085 1200.89 533.37 1206.21 533.619C1213.43 533.954 1215.92 533.417 1224.76 534.154C1226.71 542.528 1220.98 561.092 1234.3 561.092H1259.55C1270.88 561.092 1267.41 541.33 1267.41 536.398C1267.41 530.03 1285.69 536.489 1291.41 531.769C1292.92 530.522 1294.91 528.254 1294.91 525.735V499.357C1294.91 495.904 1291.31 491.49 1285.4 491.469C1279.73 491.449 1272.73 492.047 1267.97 490.939C1266.31 483.776 1272.41 464 1258.43 464H1234.3C1228.85 464 1225.4 468.217 1225.29 473.514C1225.21 477.672 1226.15 489.88 1224.34 491.082C1219.27 494.453 1197.82 484.933 1197.82 501.601Z" fill="#1D4ED8"/>
</mask>
<g mask="url(#mask4_268_353)">
<path d="M1197.82 501.601L1199.38 500.046L1195.62 496.286V501.601H1197.82ZM1224.76 534.154L1226.9 533.654L1226.54 532.094L1224.94 531.961L1224.76 534.154ZM1291.41 531.769L1292.81 533.466V533.465L1291.41 531.769ZM1267.97 490.939L1265.83 491.438L1266.14 492.771L1267.48 493.081L1267.97 490.939ZM1224.34 491.082L1223.13 489.249L1223.12 489.25L1224.34 491.082ZM1197.82 501.601H1195.62V503.802H1197.82V501.601ZM1197.82 501.601V503.802H1203.13L1199.38 500.046L1197.82 501.601ZM1195.62 501.601V523.49H1200.02V501.601H1195.62ZM1195.62 523.49C1195.62 526.673 1196.49 529.658 1198.3 531.929C1200.13 534.239 1202.83 535.663 1206.11 535.816L1206.31 531.421C1204.27 531.326 1202.77 530.484 1201.74 529.19C1200.68 527.857 1200.02 525.902 1200.02 523.49H1195.62ZM1206.11 535.816C1209.78 535.987 1212.28 535.936 1214.88 535.936C1217.46 535.936 1220.23 535.984 1224.58 536.346L1224.94 531.961C1220.45 531.587 1217.55 531.536 1214.88 531.536C1212.21 531.536 1209.86 531.586 1206.31 531.421L1206.11 535.816ZM1222.62 534.653C1223.03 536.435 1223.06 538.888 1223 541.855C1222.95 544.702 1222.82 547.96 1223.07 550.947C1223.32 553.909 1223.96 556.989 1225.69 559.358C1227.53 561.882 1230.38 563.292 1234.3 563.292V558.892C1231.56 558.892 1230.13 557.983 1229.24 556.764C1228.24 555.39 1227.69 553.305 1227.46 550.58C1227.23 547.879 1227.34 544.926 1227.4 541.937C1227.45 539.067 1227.46 536.059 1226.9 533.654L1222.62 534.653ZM1234.3 563.292H1259.55V558.892H1234.3V563.292ZM1259.55 563.292C1263.17 563.292 1265.75 561.649 1267.4 559.135C1268.96 556.764 1269.63 553.719 1269.92 550.811C1270.21 547.86 1270.12 544.792 1269.97 542.209C1269.82 539.489 1269.61 537.555 1269.61 536.398H1265.21C1265.21 537.707 1265.44 540.093 1265.58 542.465C1265.73 544.975 1265.8 547.772 1265.54 550.379C1265.28 553.027 1264.7 555.231 1263.72 556.72C1262.84 558.066 1261.6 558.892 1259.55 558.892V563.292ZM1269.61 536.398C1269.61 536.209 1269.64 536.232 1269.65 536.228C1269.75 536.142 1270.06 535.957 1270.79 535.808C1272.28 535.508 1274.46 535.546 1277.17 535.663C1279.75 535.775 1282.72 535.951 1285.38 535.784C1287.97 535.621 1290.8 535.118 1292.81 533.466L1290.01 530.072C1289.15 530.78 1287.55 531.239 1285.11 531.392C1282.74 531.541 1280.07 531.385 1277.36 531.267C1274.78 531.156 1272.04 531.069 1269.92 531.495C1268.85 531.711 1267.69 532.103 1266.77 532.901C1265.75 533.781 1265.21 534.995 1265.21 536.398H1269.61ZM1292.81 533.465C1293.68 532.742 1294.72 531.707 1295.56 530.445C1296.39 529.192 1297.11 527.573 1297.11 525.735H1292.71C1292.71 526.415 1292.44 527.19 1291.89 528.013C1291.35 528.827 1290.64 529.548 1290.01 530.072L1292.81 533.465ZM1297.11 525.735V499.357H1292.71V525.735H1297.11ZM1297.11 499.357C1297.11 494.555 1292.39 489.293 1285.41 489.269L1285.4 493.669C1290.24 493.686 1292.71 497.252 1292.71 499.357H1297.11ZM1285.41 489.269C1283.96 489.264 1282.43 489.299 1280.9 489.334C1279.37 489.371 1277.84 489.408 1276.34 489.412C1273.31 489.421 1270.59 489.289 1268.47 488.796L1267.48 493.081C1270.12 493.697 1273.28 493.821 1276.35 493.812C1277.91 493.808 1279.49 493.769 1281.01 493.733C1282.54 493.697 1284.01 493.664 1285.4 493.669L1285.41 489.269ZM1270.12 490.44C1269.78 489.002 1269.82 486.755 1269.94 483.8C1270.06 480.993 1270.24 477.699 1270.01 474.622C1269.79 471.575 1269.15 468.381 1267.37 465.914C1265.48 463.294 1262.53 461.8 1258.43 461.8V466.2C1261.33 466.2 1262.86 467.178 1263.8 468.49C1264.86 469.955 1265.42 472.152 1265.63 474.945C1265.83 477.707 1265.67 480.7 1265.55 483.616C1265.43 486.383 1265.33 489.294 1265.83 491.438L1270.12 490.44ZM1258.43 461.8H1234.3V466.2H1258.43V461.8ZM1234.3 461.8C1227.42 461.8 1223.21 467.221 1223.09 473.471L1227.49 473.556C1227.58 469.213 1230.28 466.2 1234.3 466.2V461.8ZM1223.09 473.471C1223.07 474.575 1223.12 476.183 1223.17 477.905C1223.21 479.658 1223.27 481.581 1223.27 483.406C1223.27 485.246 1223.21 486.906 1223.06 488.149C1222.98 488.776 1222.89 489.211 1222.81 489.475C1222.68 489.851 1222.69 489.537 1223.13 489.249L1225.56 492.916C1226.45 492.327 1226.82 491.368 1226.99 490.83C1227.2 490.181 1227.34 489.432 1227.43 488.681C1227.61 487.166 1227.67 485.289 1227.67 483.407C1227.67 481.51 1227.61 479.526 1227.56 477.783C1227.52 476.009 1227.47 474.531 1227.49 473.556L1223.09 473.471ZM1223.12 489.25C1222.95 489.367 1222.5 489.543 1221.55 489.627C1220.64 489.707 1219.52 489.685 1218.18 489.608C1215.63 489.46 1212.24 489.091 1209.13 489.156C1206.01 489.221 1202.61 489.709 1199.96 491.615C1197.16 493.633 1195.62 496.918 1195.62 501.601H1200.02C1200.02 497.95 1201.16 496.176 1202.54 495.186C1204.07 494.083 1206.35 493.615 1209.22 493.555C1212.11 493.495 1215.04 493.833 1217.93 494C1219.32 494.081 1220.7 494.119 1221.94 494.01C1223.14 493.904 1224.47 493.641 1225.56 492.916L1223.12 489.25Z" fill="#1D4ED8"/>
</g>
<path d="M1349.31 530.784V507.212C1349.31 505.869 1350.18 504.168 1351.6 502.747C1353.02 501.326 1354.72 500.455 1356.07 500.455H1432.96C1434.43 500.455 1436.13 501.299 1437.5 502.67C1438.87 504.04 1439.71 505.741 1439.71 507.212V530.223C1439.71 534.184 1436.35 537.541 1432.39 537.541H1356.07C1354.6 537.541 1352.9 536.697 1351.53 535.326C1350.15 533.956 1349.31 532.255 1349.31 530.784Z" stroke="#1D4ED8" stroke-width="2.2"/>
</g>
</g>
<mask id="mask5_268_353" style="mask-type:luminance" maskUnits="userSpaceOnUse" x="0" y="623" width="176" height="81">
<path d="M167.922 623.999L0 645.064L7.34401 703.606L175.266 682.54L167.922 623.999Z" fill="white"/>
</mask>
<g mask="url(#mask5_268_353)">
<g opacity="0.3">
<path d="M85.8304 650.107C79.389 654.233 70.7239 657.198 61.8321 658.317C52.9441 659.435 43.7278 658.721 36.2124 655.382C30.1566 652.692 25.7707 649.14 21.1959 644.754C17.0496 640.778 13.1653 634.597 10.3051 629.5C9.85605 628.7 9.35505 627.542 8.81076 626.284C8.70286 626.034 8.59325 625.781 8.48202 625.526C7.79403 623.947 7.01626 622.226 6.11367 620.65C5.20628 619.066 4.20817 617.693 3.10646 616.77C2.02313 615.863 0.892259 615.429 -0.354177 615.586L-23.135 618.444C-24.4138 618.604 -25.4512 619.432 -26.1467 620.692C-26.832 621.934 -27.1357 623.521 -26.9675 625.027L-26.9552 625.125C-26.0533 632.314 -24.4006 637.826 -21.4741 644.128C-19.2211 648.979 -17.031 653.17 -14.3503 657.752M85.8304 650.107L85.2965 649.274M85.8304 650.107C94.4491 644.585 100.171 637.32 104.618 628.404C108.477 620.667 109.683 613.934 110.555 609.065C110.576 608.942 110.598 608.821 110.62 608.7C111.066 606.215 111.419 604.364 111.975 603.079C112.246 602.454 112.538 602.029 112.858 601.746C113.164 601.476 113.539 601.298 114.055 601.233L141.391 597.804C141.619 597.775 142.022 597.873 142.603 598.32C143.161 598.749 143.754 599.402 144.312 600.19C145.444 601.787 146.276 603.702 146.429 604.916C146.934 608.949 146.426 615.286 145.363 621.665C144.302 628.032 142.713 634.298 141.127 638.168L141.024 638.421C139.021 643.31 137.342 647.41 134.812 651.832L135.671 652.324L134.812 651.833C134.467 652.436 134.15 653.014 133.843 653.572C132.979 655.145 132.203 656.56 131.135 657.94C130.386 658.908 129.827 659.799 129.306 660.63C129.226 660.757 129.148 660.883 129.069 661.007C128.475 661.948 127.886 662.837 127.029 663.801C126.591 664.294 126.261 664.612 125.923 664.937C125.852 665.005 125.781 665.074 125.709 665.144C125.282 665.56 124.847 666.006 124.262 666.761M-14.3503 657.752C-11.9201 661.906 -8.76982 665.809 -5.74009 669.321C11.1508 688.899 36.7865 698.918 63.1626 695.609C78.8319 693.644 92.0125 691.102 104.713 683.123C111.476 678.873 119.478 672.925 124.262 666.761M-14.3503 657.752L-15.2046 658.252M124.262 666.761L125.044 667.368" stroke="#1D4ED8" stroke-width="1.97941"/>
</g>
</g>
</g>
<defs>
<clipPath id="clip0_268_353">
<rect width="1440" height="718" fill="white"/>
</clipPath>
</defs>
</svg>
