<svg width="1441" height="301" viewBox="0 0 1441 301" fill="none" xmlns="http://www.w3.org/2000/svg">
<path d="M0.820068 227.848L1440.82 0V300H0.820068V227.848Z" fill="#F0AC27"/>
<g opacity="0.3" clip-path="url(#clip0_264_217)">
<path d="M264.318 194.858V194.76C264.339 193.245 264.838 191.707 265.672 190.561C266.519 189.397 267.652 188.705 268.94 188.705H291.9C293.156 188.705 294.224 189.275 295.186 190.311C296.164 191.364 296.984 192.85 297.687 194.535C298.386 196.21 298.944 198.015 299.43 199.667C299.509 199.934 299.586 200.199 299.662 200.46C300.045 201.776 300.398 202.988 300.744 203.837C302.948 209.251 306.033 215.868 309.652 220.328L309.652 220.328C313.645 225.249 317.555 229.32 323.228 232.743C330.27 236.991 339.325 238.847 348.283 238.844C357.245 238.841 366.212 236.978 373.117 233.685L372.691 232.792L373.117 233.685C382.356 229.279 388.937 222.783 394.46 214.49C399.252 207.293 401.286 200.763 402.758 196.04C402.795 195.921 402.831 195.803 402.868 195.686C403.619 193.276 404.201 191.483 404.912 190.277C405.259 189.691 405.602 189.305 405.954 189.065C406.292 188.835 406.685 188.705 407.206 188.705H434.757C434.986 188.705 435.374 188.852 435.895 189.367C436.395 189.862 436.901 190.585 437.357 191.436C438.282 193.161 438.869 195.165 438.869 196.388C438.869 200.453 437.576 206.677 435.727 212.875C433.882 219.06 431.525 225.079 429.47 228.722L429.336 228.96C426.74 233.562 424.563 237.421 421.503 241.494L422.294 242.089L421.503 241.494C421.085 242.05 420.699 242.584 420.325 243.099C419.272 244.553 418.326 245.86 417.095 247.096C416.231 247.963 415.565 248.779 414.945 249.538C414.85 249.654 414.756 249.769 414.663 249.883C413.957 250.742 413.261 251.551 412.291 252.401C411.795 252.835 411.427 253.11 411.052 253.391C410.973 253.449 410.894 253.509 410.814 253.569C410.338 253.928 409.852 254.318 409.177 254.993L409.877 255.693L409.177 254.993C403.663 260.514 394.983 265.42 387.744 268.794C374.148 275.131 360.754 276.012 344.962 276.012C318.379 276.012 294.19 262.88 279.867 241.351C277.298 237.49 274.658 233.225 272.764 228.801L271.854 229.19L272.764 228.8C270.674 223.92 269.023 219.489 267.391 214.396C265.272 207.779 264.318 202.104 264.318 194.858Z" stroke="#1D4ED8" stroke-width="1.97941"/>
</g>
<g opacity="0.35" clip-path="url(#clip1_264_217)">
<path d="M688.512 228.483C687.867 229.402 687.392 230.243 686.95 231.026C686.883 231.146 686.816 231.264 686.749 231.382C686.245 232.269 685.743 233.109 684.999 234.029C684.619 234.498 684.329 234.804 684.034 235.117C683.972 235.182 683.91 235.248 683.847 235.315C683.473 235.714 683.094 236.142 682.59 236.858L683.316 237.37L682.59 236.858C678.469 242.71 671.39 248.501 665.374 252.682C654.076 260.534 642.107 263.424 627.834 265.892C603.807 270.046 579.892 261.957 563.582 244.737C560.656 241.648 557.604 238.206 555.2 234.503L554.574 234.909L555.2 234.503C552.549 230.419 550.364 226.672 548.093 222.323C545.143 216.674 543.394 211.693 542.262 205.145L542.246 205.056L577.359 207.087L576.588 207.567C579.426 212.116 583.248 217.614 587.217 221.081L587.217 221.081C591.595 224.905 595.765 227.972 601.428 230.18M688.512 228.483L689.255 229.005L688.512 228.483C688.512 228.483 688.512 228.483 688.512 228.483ZM688.512 228.483C689.431 227.173 690.083 225.844 690.807 224.366C691.064 223.841 691.33 223.298 691.621 222.731L692.406 223.133L691.621 222.731C693.75 218.571 695.115 214.743 696.742 210.178L696.826 209.942C698.114 206.328 699.303 200.519 700.005 194.64C700.707 188.75 700.903 182.922 700.268 179.248C700.077 178.143 699.232 176.423 698.127 175.008C697.582 174.31 697.012 173.736 696.482 173.367C695.931 172.982 695.557 172.91 695.35 172.946L670.448 177.252C669.978 177.333 669.642 177.512 669.373 177.773C669.092 178.045 668.842 178.447 668.621 179.031C668.166 180.232 667.921 181.944 667.619 184.24C667.604 184.351 667.589 184.463 667.574 184.577C666.983 189.076 666.165 195.296 662.958 202.549L662.178 202.205L662.958 202.549C659.262 210.908 654.329 217.808 646.667 223.235L646.16 222.518L646.667 223.235C640.941 227.29 633.127 230.375 625.027 231.778C616.931 233.181 608.456 232.919 601.428 230.18M601.428 230.18L601.749 229.357L601.428 230.18C601.428 230.18 601.428 230.18 601.428 230.18Z" stroke="#1D4ED8" stroke-width="1.81562"/>
<path d="M516.565 157.872C518.972 157.57 520.717 157.262 522.454 156.955C522.853 156.884 523.252 156.814 523.659 156.743C525.838 156.366 528.199 156.001 531.913 155.673L532.572 155.614L532.829 156.223C533.579 157.996 533.986 160.352 534.353 162.738C534.406 163.087 534.459 163.438 534.512 163.789C534.829 165.886 535.148 168 535.649 169.924C536.236 172.179 537.039 174.018 538.245 175.184C539.394 176.296 541.01 176.893 543.505 176.462L564.257 172.874C566.266 172.526 567.413 171.454 568.065 169.952C568.746 168.387 568.899 166.315 568.733 164.047C568.569 161.796 568.1 159.452 567.619 157.396C567.44 156.626 567.254 155.881 567.084 155.197C566.811 154.101 566.576 153.159 566.465 152.516C566.309 151.615 566.519 150.816 567.051 150.166C567.55 149.557 568.28 149.143 569.06 148.84C570.612 148.238 572.761 147.929 574.922 147.651C575.194 147.616 575.466 147.582 575.739 147.547C577.69 147.3 579.659 147.051 581.402 146.636C583.418 146.156 584.92 145.498 585.728 144.557C586.217 143.987 586.758 143.215 587.131 142.367C587.506 141.513 587.685 140.646 587.547 139.847L583.799 118.173C583.403 115.884 580.335 113.034 575.91 113.783C574.758 113.978 573.541 114.217 572.289 114.464L572.109 114.499C570.918 114.734 569.699 114.975 568.494 115.187C565.978 115.629 563.457 115.959 561.31 115.835L560.746 115.802L560.526 115.282C559.871 113.732 559.55 111.466 559.247 109.137C559.218 108.917 559.19 108.696 559.161 108.474C558.878 106.28 558.583 103.989 558.06 101.896C557.482 99.5782 556.658 97.6482 555.394 96.4126C554.187 95.2317 552.478 94.5892 549.85 95.0436L530.021 98.4723C526.127 99.1456 524.105 102.559 524.714 106.537C524.839 107.358 525.085 108.573 525.371 109.991L525.381 110.043C525.669 111.471 525.993 113.081 526.259 114.624C526.525 116.162 526.739 117.667 526.8 118.88C526.83 119.484 526.824 120.052 526.756 120.531C526.694 120.962 526.557 121.525 526.154 121.905C525.528 122.497 524.653 122.853 523.734 123.097C522.8 123.345 521.712 123.504 520.571 123.634C519.89 123.711 519.19 123.779 518.481 123.847C516.763 124.013 514.987 124.184 513.283 124.516C510.877 124.984 508.84 125.736 507.535 127.067C506.334 128.291 505.628 130.139 506.069 133.136L507.547 134.179L506.282 134.397L509.237 151.487C509.608 153.63 510.51 155.348 511.759 156.461C512.992 157.559 514.614 158.116 516.565 157.872ZM516.565 157.872C516.565 157.872 516.565 157.872 516.565 157.872L516.678 158.773L516.565 157.872Z" stroke="#1D4ED8" stroke-width="1.81562"/>
<path d="M633.846 136.115L630.497 116.747C630.305 115.639 630.781 114.116 631.748 112.745C632.714 111.375 633.989 110.415 635.097 110.224L698.274 99.2996C699.486 99.0901 701.006 99.5432 702.328 100.476C703.65 101.408 704.587 102.687 704.797 103.9L708.066 122.806C708.63 126.066 706.344 129.307 703.085 129.87L640.369 140.715C639.157 140.924 637.637 140.471 636.315 139.539C634.993 138.606 634.055 137.327 633.846 136.115Z" stroke="#1D4ED8" stroke-width="1.81562"/>
</g>
<g opacity="0.5" clip-path="url(#clip2_264_217)">
<path d="M850.664 213.313L850.634 213.218C850.187 211.752 850.193 210.117 850.643 208.756C851.1 207.373 851.978 206.355 853.222 205.957L875.307 198.886C876.519 198.498 877.725 198.719 878.971 199.42C880.237 200.132 881.484 201.311 882.68 202.715C883.869 204.112 884.961 205.676 885.938 207.116C886.096 207.349 886.252 207.58 886.405 207.807C887.179 208.955 887.892 210.012 888.486 210.722C892.273 215.251 897.277 220.664 902.131 223.84L902.131 223.84C907.487 227.343 912.501 230.054 919.011 231.599C927.091 233.517 936.371 232.513 944.986 229.751C953.604 226.988 961.655 222.436 967.281 217.143L966.603 216.422L967.281 217.143C974.81 210.061 979.139 201.786 981.897 192.109C984.29 183.713 984.236 176.805 984.196 171.809C984.195 171.683 984.194 171.559 984.193 171.435C984.174 168.886 984.181 166.98 984.495 165.6C984.647 164.928 984.859 164.45 985.125 164.109C985.38 163.783 985.721 163.535 986.223 163.374L1012.72 154.889C1012.95 154.817 1013.37 154.84 1014.03 155.176C1014.67 155.499 1015.38 156.039 1016.08 156.717C1017.5 158.093 1018.68 159.841 1019.06 161.02C1020.31 164.931 1020.99 171.318 1021.12 177.849C1021.25 184.367 1020.83 190.884 1019.98 195.023L1019.92 195.293C1018.84 200.519 1017.94 204.902 1016.25 209.763L1017.13 210.071L1016.25 209.763C1016.02 210.426 1015.81 211.058 1015.61 211.669C1015.04 213.392 1014.53 214.942 1013.73 216.511C1013.17 217.61 1012.78 218.599 1012.42 219.521C1012.36 219.662 1012.31 219.801 1012.25 219.939C1011.84 220.984 1011.42 221.977 1010.74 223.094C1010.4 223.664 1010.13 224.042 1009.86 224.428C1009.8 224.509 1009.74 224.59 1009.68 224.673C1009.34 225.164 1008.99 225.688 1008.55 226.546L1009.43 226.998L1008.55 226.546C1004.94 233.556 998.103 240.949 992.178 246.425C981.05 256.709 968.435 261.683 953.244 266.546C927.67 274.734 900.354 269.551 879.943 253.252C876.283 250.328 872.429 247.038 869.244 243.365L868.496 244.013L869.244 243.365C865.731 239.314 862.777 235.56 859.639 231.163C855.562 225.45 852.896 220.283 850.664 213.313Z" stroke="#1D4ED8" stroke-width="1.97941"/>
<path d="M800.662 141.622L801.994 141.195L800.241 140.292C799.302 137.086 799.79 134.959 800.917 133.437C802.139 131.785 804.249 130.653 806.802 129.777C808.611 129.156 810.522 128.699 812.37 128.256C813.134 128.074 813.886 127.894 814.617 127.706C815.841 127.391 817.003 127.051 817.984 126.639C818.948 126.234 819.846 125.713 820.438 124.974C820.816 124.501 820.881 123.87 820.882 123.39C820.884 122.858 820.804 122.239 820.679 121.585C820.428 120.272 819.966 118.664 819.443 117.027C818.917 115.384 818.319 113.678 817.788 112.165L817.768 112.109C817.241 110.607 816.788 109.318 816.526 108.443C815.256 104.193 816.943 100.156 821.093 98.8273L842.197 92.0704C844.996 91.1741 846.96 91.6149 848.46 92.7213C850.028 93.8781 851.222 95.8596 852.205 98.2994C853.094 100.504 853.765 102.958 854.408 105.307C854.473 105.545 854.537 105.782 854.602 106.017C855.287 108.511 855.981 110.933 856.931 112.522L857.247 113.05L857.861 113.001C860.219 112.809 862.918 112.066 865.595 111.201C866.876 110.787 868.17 110.338 869.433 109.901L869.623 109.835C870.951 109.375 872.242 108.93 873.469 108.542C878.185 107.05 881.971 109.693 882.753 112.135L890.138 135.202C890.411 136.055 890.348 137.03 890.068 138.019C889.79 139.002 889.318 139.927 888.87 140.624C888.131 141.775 886.59 142.722 884.464 143.553C882.625 144.271 880.516 144.842 878.425 145.409C878.133 145.488 877.841 145.567 877.551 145.647C875.236 146.279 872.941 146.942 871.341 147.834C870.537 148.283 869.806 148.844 869.355 149.583C868.875 150.37 868.768 151.27 869.075 152.226C869.293 152.91 869.692 153.901 870.157 155.055C870.447 155.775 870.763 156.56 871.076 157.372C871.913 159.542 872.782 162.027 873.304 164.458C873.83 166.907 873.978 169.191 873.473 171.004C872.989 172.744 871.9 174.091 869.758 174.777L847.673 181.848C845.014 182.699 843.158 182.293 841.732 181.253C840.238 180.163 839.082 178.278 838.098 175.907C837.259 173.885 836.589 171.627 835.924 169.388C835.813 169.014 835.702 168.639 835.59 168.267C834.827 165.72 834.025 163.214 832.939 161.396L832.569 160.778L831.867 160.94C827.866 161.863 825.347 162.62 823.028 163.363C822.596 163.502 822.171 163.639 821.747 163.777C819.899 164.376 818.043 164.978 815.463 165.674C813.37 166.238 811.513 165.877 809.999 164.865C808.465 163.84 807.219 162.101 806.488 159.819L800.662 141.622Z" stroke="#1D4ED8" stroke-width="1.97941"/>
<path d="M940.044 124.091L933.445 103.478C933.066 102.296 933.354 100.559 934.2 98.9165C935.046 97.2738 936.293 96.0304 937.475 95.6518L1004.71 74.1245C1006.01 73.7104 1007.73 73.9743 1009.32 74.7906C1010.91 75.607 1012.12 76.8616 1012.54 78.1548L1018.98 98.2765C1020.09 101.751 1018.09 105.639 1014.62 106.751L947.871 128.121C946.578 128.535 944.848 128.271 943.263 127.455C941.678 126.639 940.458 125.384 940.044 124.091Z" stroke="#1D4ED8" stroke-width="1.97941"/>
</g>
<g opacity="0.1" clip-path="url(#clip3_264_217)">
<path d="M1227.98 176.536V176.644C1227.98 184.613 1229.02 190.854 1231.36 198.132C1233.15 203.734 1234.97 208.608 1237.26 213.976L1236.39 214.35L1237.26 213.976C1239.35 218.842 1242.25 223.532 1245.08 227.78C1260.83 251.458 1287.43 265.902 1316.67 265.902C1334.04 265.902 1348.77 264.932 1363.73 257.963C1371.69 254.252 1381.24 248.855 1387.3 242.784L1388.05 243.531L1387.3 242.784C1388.04 242.041 1388.58 241.612 1389.1 241.217C1389.19 241.15 1389.28 241.085 1389.36 241.02C1389.78 240.712 1390.18 240.409 1390.73 239.933C1391.79 238.998 1392.56 238.109 1393.33 237.163C1393.44 237.039 1393.54 236.912 1393.64 236.784C1394.33 235.949 1395.06 235.052 1396.01 234.097C1397.36 232.738 1398.4 231.301 1399.56 229.703C1399.97 229.136 1400.4 228.548 1400.86 227.937L1401.74 228.597L1400.86 227.937C1404.22 223.457 1406.62 219.212 1409.47 214.15L1409.62 213.889C1411.88 209.883 1414.47 203.262 1416.5 196.459C1418.54 189.642 1419.96 182.796 1419.96 178.327C1419.96 176.984 1419.31 174.782 1418.3 172.885C1417.8 171.949 1417.24 171.155 1416.69 170.612C1416.12 170.046 1415.69 169.886 1415.45 169.886H1385.14C1384.57 169.886 1384.14 170.029 1383.77 170.281C1383.38 170.544 1383.01 170.966 1382.63 171.61C1381.85 172.935 1381.21 174.906 1380.38 177.558C1380.34 177.686 1380.3 177.816 1380.26 177.947C1378.64 183.142 1376.4 190.327 1371.13 198.245L1370.21 197.635L1371.13 198.245C1365.05 207.368 1357.81 214.516 1347.65 219.364L1347.17 218.371L1347.65 219.364C1340.05 222.986 1330.19 225.036 1320.33 225.039C1310.47 225.043 1300.51 223.001 1292.76 218.327C1286.52 214.56 1282.21 210.082 1277.82 204.668L1277.82 204.668C1273.84 199.76 1270.45 192.48 1268.02 186.525L1227.98 176.536ZM1227.98 176.536C1228 174.871 1228.55 173.182 1229.46 171.923C1230.39 170.645 1231.64 169.886 1233.05 169.886H1258.3C1259.68 169.886 1260.85 170.512 1261.91 171.649C1262.98 172.806 1263.89 174.44 1264.66 176.292C1265.43 178.135 1266.04 180.119 1266.58 181.937C1266.66 182.23 1266.75 182.522 1266.83 182.809C1267.25 184.256 1267.64 185.59 1268.02 186.525L1227.98 176.536Z" stroke="#1D4ED8" stroke-width="2.2"/>
<mask id="path-10-inside-1_264_217" fill="white">
<path fill-rule="evenodd" clip-rule="evenodd" d="M1198.82 84.6013V106.49C1198.82 112.085 1201.89 116.37 1207.21 116.619C1214.43 116.954 1216.92 116.417 1225.76 117.154C1227.71 125.528 1221.98 144.092 1235.3 144.092H1260.55C1271.88 144.092 1268.41 124.33 1268.41 119.398C1268.41 113.03 1286.69 119.489 1292.41 114.769C1293.92 113.522 1295.91 111.254 1295.91 108.735V82.3573C1295.91 78.9038 1292.31 74.4898 1286.4 74.4693C1280.73 74.4495 1273.73 75.0473 1268.97 73.9389C1267.31 66.7761 1273.41 47 1259.43 47H1235.3C1229.85 47 1226.4 51.2169 1226.29 56.5137C1226.21 60.672 1227.15 72.8803 1225.34 74.0825C1220.27 77.4532 1198.82 67.9337 1198.82 84.6021H1198.82L1198.82 84.6013Z"/>
</mask>
<path d="M1198.82 84.6013L1200.38 83.0465L1196.62 79.2864V84.6013H1198.82ZM1207.21 116.619L1207.11 118.816L1207.11 118.816L1207.21 116.619ZM1225.76 117.154L1227.9 116.654L1227.54 115.094L1225.94 114.961L1225.76 117.154ZM1292.41 114.769L1293.81 116.466L1293.81 116.465L1292.41 114.769ZM1286.4 74.4693L1286.4 76.6693L1286.4 76.6693L1286.4 74.4693ZM1268.97 73.9389L1266.83 74.4379L1267.14 75.7711L1268.48 76.0816L1268.97 73.9389ZM1226.29 56.5137L1224.09 56.4711L1224.09 56.4715L1226.29 56.5137ZM1225.34 74.0825L1224.13 72.2491L1224.12 72.2498L1225.34 74.0825ZM1198.82 84.6021H1196.62V86.8021H1198.82V84.6021ZM1198.82 84.6021V86.8021H1204.13L1200.38 83.0472L1198.82 84.6021ZM1196.62 84.6013V106.49H1201.02V84.6013H1196.62ZM1196.62 106.49C1196.62 109.673 1197.49 112.658 1199.3 114.929C1201.13 117.239 1203.83 118.663 1207.11 118.816L1207.31 114.421C1205.27 114.326 1203.77 113.484 1202.74 112.19C1201.68 110.857 1201.02 108.902 1201.02 106.49H1196.62ZM1207.11 118.816C1210.78 118.987 1213.28 118.936 1215.88 118.936C1218.46 118.936 1221.23 118.984 1225.58 119.346L1225.94 114.961C1221.45 114.587 1218.55 114.536 1215.88 114.536C1213.21 114.536 1210.86 114.586 1207.31 114.421L1207.11 118.816ZM1223.62 117.653C1224.03 119.435 1224.06 121.888 1224 124.855C1223.95 127.702 1223.82 130.96 1224.07 133.947C1224.32 136.909 1224.96 139.989 1226.69 142.358C1228.53 144.882 1231.38 146.292 1235.3 146.292V141.892C1232.56 141.892 1231.13 140.983 1230.24 139.764C1229.24 138.39 1228.69 136.305 1228.46 133.58C1228.23 130.879 1228.34 127.926 1228.4 124.937C1228.45 122.067 1228.46 119.059 1227.9 116.654L1223.62 117.653ZM1235.3 146.292H1260.55V141.892H1235.3V146.292ZM1260.55 146.292C1264.17 146.292 1266.75 144.649 1268.4 142.135C1269.96 139.764 1270.63 136.719 1270.92 133.811C1271.21 130.86 1271.12 127.792 1270.97 125.209C1270.82 122.489 1270.61 120.555 1270.61 119.398H1266.21C1266.21 120.707 1266.44 123.093 1266.58 125.465C1266.73 127.975 1266.8 130.772 1266.54 133.379C1266.28 136.027 1265.7 138.231 1264.72 139.72C1263.84 141.066 1262.6 141.892 1260.55 141.892V146.292ZM1270.61 119.398C1270.61 119.209 1270.64 119.232 1270.65 119.228C1270.75 119.142 1271.06 118.957 1271.79 118.808C1273.28 118.508 1275.46 118.546 1278.17 118.663C1280.75 118.775 1283.72 118.951 1286.38 118.784C1288.97 118.621 1291.8 118.118 1293.81 116.466L1291.01 113.072C1290.15 113.78 1288.55 114.239 1286.11 114.392C1283.74 114.541 1281.07 114.385 1278.36 114.267C1275.78 114.156 1273.04 114.069 1270.92 114.495C1269.85 114.711 1268.69 115.103 1267.77 115.901C1266.75 116.781 1266.21 117.995 1266.21 119.398H1270.61ZM1293.81 116.465C1294.68 115.742 1295.72 114.707 1296.56 113.445C1297.39 112.192 1298.11 110.573 1298.11 108.735H1293.71C1293.71 109.415 1293.44 110.19 1292.89 111.013C1292.35 111.827 1291.64 112.549 1291.01 113.073L1293.81 116.465ZM1298.11 108.735V82.3573H1293.71V108.735H1298.11ZM1298.11 82.3573C1298.11 77.5555 1293.39 72.2935 1286.41 72.2693L1286.4 76.6693C1291.24 76.6861 1293.71 80.2521 1293.71 82.3573H1298.11ZM1286.41 72.2693C1284.96 72.2643 1283.43 72.2987 1281.9 72.3346C1280.37 72.3707 1278.84 72.4082 1277.34 72.4124C1274.31 72.4207 1271.59 72.2887 1269.47 71.7962L1268.48 76.0816C1271.12 76.6975 1274.28 76.8208 1277.35 76.8123C1278.91 76.8081 1280.49 76.7691 1282.01 76.7334C1283.54 76.6973 1285.01 76.6645 1286.4 76.6693L1286.41 72.2693ZM1271.12 73.4399C1270.78 72.0021 1270.82 69.7556 1270.94 66.7998C1271.06 63.9934 1271.24 60.6987 1271.01 57.6222C1270.79 54.5751 1270.15 51.3807 1268.37 48.9141C1266.48 46.2941 1263.53 44.8 1259.43 44.8V49.2C1262.33 49.2 1263.86 50.1779 1264.8 51.4898C1265.86 52.9551 1266.42 55.1523 1266.63 57.9447C1266.83 60.7075 1266.67 63.6999 1266.55 66.616C1266.43 69.3828 1266.33 72.2943 1266.83 74.4379L1271.12 73.4399ZM1259.43 44.8H1235.3V49.2H1259.43V44.8ZM1235.3 44.8C1228.42 44.8 1224.21 50.2209 1224.09 56.4711L1228.49 56.5563C1228.58 52.2129 1231.28 49.2 1235.3 49.2V44.8ZM1224.09 56.4715C1224.07 57.576 1224.12 59.1831 1224.17 60.9052C1224.21 62.6577 1224.27 64.5807 1224.27 66.4058C1224.27 68.2458 1224.21 69.9066 1224.06 71.1489C1223.98 71.7762 1223.89 72.2107 1223.81 72.4756C1223.68 72.8513 1223.69 72.5376 1224.13 72.2491L1226.56 75.9158C1227.45 75.3268 1227.82 74.3686 1227.99 73.8303C1228.2 73.1813 1228.34 72.4322 1228.43 71.681C1228.61 70.1662 1228.67 68.2896 1228.67 66.4074C1228.67 64.5105 1228.61 62.5265 1228.56 60.7829C1228.52 59.0088 1228.47 57.5306 1228.49 56.5559L1224.09 56.4715ZM1224.12 72.2498C1223.95 72.3675 1223.5 72.5436 1222.55 72.6272C1221.64 72.7073 1220.52 72.6855 1219.18 72.6079C1216.63 72.4597 1213.24 72.0913 1210.13 72.1561C1207.01 72.2212 1203.61 72.7096 1200.96 74.6148C1198.16 76.6329 1196.62 79.9188 1196.62 84.6021H1201.02C1201.02 80.9511 1202.16 79.1763 1203.54 78.186C1205.07 77.0828 1207.35 76.6152 1210.22 76.5552C1213.11 76.495 1216.04 76.8328 1218.93 77.0005C1220.32 77.0809 1221.7 77.1196 1222.94 77.0101C1224.14 76.904 1225.47 76.6401 1226.56 75.9152L1224.12 72.2498ZM1198.82 86.8021H1198.82V82.4021H1198.82V86.8021ZM1200.38 83.0472L1200.38 83.0465L1197.26 86.1562L1197.26 86.1569L1200.38 83.0472Z" fill="#1D4ED8" mask="url(#path-10-inside-1_264_217)"/>
<path d="M1350.31 113.784V90.2127C1350.31 88.869 1351.18 87.1684 1352.6 85.7476C1354.02 84.3268 1355.72 83.4555 1357.07 83.4555H1433.96C1435.43 83.4555 1437.13 84.2996 1438.5 85.6701C1439.87 87.0407 1440.71 88.7416 1440.71 90.2127V113.223C1440.71 117.184 1437.35 120.541 1433.39 120.541H1357.07C1355.6 120.541 1353.9 119.697 1352.53 118.326C1351.15 116.956 1350.31 115.255 1350.31 113.784Z" stroke="#1D4ED8" stroke-width="2.2"/>
</g>
<g opacity="0.3" clip-path="url(#clip4_264_217)">
<path d="M-25.9553 208.124L-25.9675 208.026C-26.1357 206.52 -25.832 204.933 -25.1467 203.691C-24.4512 202.431 -23.4139 201.603 -22.1351 201.443L0.645723 198.585C1.89216 198.428 3.02303 198.862 4.10636 199.769C5.20807 200.692 6.20618 202.065 7.11357 203.649C8.01616 205.225 8.79393 206.946 9.48192 208.525C9.59315 208.78 9.70276 209.033 9.81066 209.283C10.3549 210.541 10.856 211.699 11.3051 212.499C14.1653 217.596 18.0496 223.777 22.1959 227.753L22.196 227.753C26.7708 232.139 31.1566 235.691 37.2124 238.381C44.7278 241.72 53.9439 242.434 62.8319 241.316C71.7237 240.197 80.3888 237.232 86.8302 233.106L86.2963 232.273L86.8302 233.106C95.4489 227.584 101.171 220.319 105.618 211.403C109.477 203.666 110.683 196.933 111.555 192.064C111.576 191.941 111.598 191.82 111.62 191.699C112.066 189.214 112.419 187.363 112.975 186.078C113.246 185.453 113.538 185.028 113.858 184.745C114.164 184.475 114.539 184.297 115.055 184.232L142.391 180.803C142.619 180.774 143.022 180.872 143.603 181.319C144.161 181.748 144.754 182.401 145.312 183.189C146.444 184.786 147.276 186.701 147.429 187.915C147.934 191.948 147.426 198.285 146.363 204.664C145.302 211.031 143.713 217.297 142.127 221.167L142.024 221.42C140.021 226.309 138.342 230.409 135.812 234.831L136.671 235.323L135.812 234.832C135.467 235.435 135.15 236.013 134.843 236.571C133.979 238.144 133.203 239.559 132.135 240.939C131.386 241.907 130.827 242.798 130.306 243.629C130.226 243.756 130.148 243.882 130.069 244.006C129.475 244.947 128.886 245.836 128.029 246.8C127.591 247.293 127.261 247.611 126.923 247.936C126.852 248.004 126.781 248.073 126.709 248.143C126.282 248.559 125.847 249.005 125.262 249.76L126.044 250.367L125.262 249.76C120.478 255.924 112.476 261.872 105.713 266.122C93.0125 274.101 79.8317 276.643 64.1624 278.608C37.7863 281.917 12.1507 271.898 -4.74019 252.32C-7.76992 248.808 -10.9201 244.905 -13.3503 240.751L-14.2046 241.251L-13.3503 240.751C-16.031 236.169 -18.2212 231.978 -20.4742 227.127C-23.4007 220.825 -25.0534 215.313 -25.9553 208.124Z" stroke="#1D4ED8" stroke-width="1.97941"/>
</g>
<defs>
<clipPath id="clip0_264_217">
<rect width="220" height="92" fill="white" transform="translate(237.82 185)"/>
</clipPath>
<clipPath id="clip1_264_217">
<rect width="201.797" height="137.589" fill="white" transform="translate(507.703 147.953) rotate(-9.81)"/>
</clipPath>
<clipPath id="clip2_264_217">
<rect width="222.206" height="202.006" fill="white" transform="translate(788.89 108.099) rotate(-17.7536)"/>
</clipPath>
<clipPath id="clip3_264_217">
<rect width="242" height="220" fill="white" transform="translate(1198.82 47)"/>
</clipPath>
<clipPath id="clip4_264_217">
<rect width="169.238" height="59" fill="white" transform="translate(1 228.065) rotate(-7.15042)"/>
</clipPath>
</defs>
</svg>
