<svg width="61" height="60" viewBox="0 0 61 60" fill="none" xmlns="http://www.w3.org/2000/svg">
<rect x="0.5" width="60" height="60" rx="30" fill="#0C1F56"/>
<path d="M19.8332 22.0003H41.1665V24.667H19.8332V22.0003ZM22.4998 16.667H38.4998V19.3337H22.4998V16.667ZM41.1665 27.3337H19.8332C18.3665 27.3337 17.1665 28.5337 17.1665 30.0003V40.667C17.1665 42.1337 18.3665 43.3337 19.8332 43.3337H41.1665C42.6332 43.3337 43.8332 42.1337 43.8332 40.667V30.0003C43.8332 28.5337 42.6332 27.3337 41.1665 27.3337ZM41.1665 40.667H19.8332V30.0003H41.1665V40.667ZM27.8332 30.9737V39.6803L35.8332 35.3337L27.8332 30.9737Z" fill="#E8EDFB"/>
</svg>
