<svg width="2372" height="523" viewBox="0 0 2372 523" fill="none" xmlns="http://www.w3.org/2000/svg">
<path fill-rule="evenodd" clip-rule="evenodd" d="M66.6591 307.96C66.6591 327.171 69.1972 342.266 74.8128 359.799C79.1008 373.186 83.4443 384.84 88.9374 397.668C93.9831 409.452 100.986 420.755 107.721 430.878C145.626 487.854 209.642 522.6 279.966 522.6C321.299 522.6 356.783 520.309 392.848 503.499C411.836 494.647 434.854 481.673 449.59 466.92C452.903 463.603 454.289 463.165 457.601 460.266C462.996 455.542 465.295 451.29 470.281 446.284C474.808 441.739 478.014 436.727 482.036 431.375C490.289 420.392 496.114 409.997 503.04 397.719C514.05 378.203 527.933 333.98 527.933 311.959C527.933 304.412 521.025 289.295 514.602 289.295H442.611C427.851 289.295 432.38 319.943 407.154 357.825C392.92 379.198 376.053 395.814 352.423 407.082C317.142 423.905 260.267 426.312 224.513 404.74C210.051 396.013 200.053 385.634 189.709 372.885C180.512 361.549 172.57 344.571 166.821 330.449C162.746 320.441 158.073 289.296 141.316 289.296H81.3231C72.5288 289.296 66.6582 298.847 66.6582 307.96H66.6591Z" fill="#1D4ED8"/>
<path fill-rule="evenodd" clip-rule="evenodd" d="M0.000894638 89.3215V141.315C0.000894638 154.608 7.28861 164.786 19.9352 165.376C37.0738 166.173 42.9936 164.898 63.9926 166.646C68.6268 186.539 55.0211 230.638 86.6564 230.638H146.649C173.559 230.638 165.314 183.694 165.314 171.978C165.314 156.851 208.723 172.195 222.309 160.982C225.896 158.021 230.639 152.632 230.639 146.648V83.9895C230.639 75.7857 222.091 65.3014 208.048 65.2522C194.572 65.2057 177.952 66.6255 166.647 63.9917C162.684 46.9774 177.194 0 143.983 0H86.6564C73.7182 0 65.5027 10.0164 65.2603 22.5986C65.0706 32.4762 67.3045 61.4759 63.0004 64.3334C50.9434 72.3404 0 49.7267 0 89.3224L0.000894638 89.3215Z" fill="#F0AC27"/>
<path fill-rule="evenodd" clip-rule="evenodd" d="M1350.5 250.635C1350.5 287.142 1335.43 317.633 1311.29 336.744C1284.94 357.598 1244.42 361.441 1214.49 346.646C1200.26 339.612 1196.14 335.733 1185.49 324.985C1154.47 293.687 1150.88 233.979 1174.05 191.505C1177.74 184.744 1180.15 182.484 1184.6 176.729C1205.36 149.914 1243.96 141.394 1275.76 148.057C1282.95 149.562 1288.44 151.492 1294.9 154.252C1317.82 164.052 1334.03 184.855 1342.91 207.559C1346.93 217.817 1350.5 236.955 1350.5 250.635L1350.5 250.635ZM1114.53 247.969C1114.53 311.408 1146.09 360.563 1202.12 384.344C1216.86 390.595 1235.29 393.242 1251.96 394.593C1261.57 395.373 1280.47 391.23 1287.84 390.618L1326.5 458.609H1369.16C1368.64 452.385 1329.34 386.368 1323.83 375.954C1364.8 354.276 1394.49 305.012 1394.49 255.968C1394.49 204.48 1376.29 159.314 1333.97 131.176C1301.54 109.613 1262.31 101.479 1223.55 110.357C1158.21 125.324 1114.52 181.809 1114.52 247.969H1114.53Z" fill="white"/>
<path fill-rule="evenodd" clip-rule="evenodd" d="M1927.76 189.31C1927.76 300.427 2087.74 239.792 2087.74 314.627C2087.74 340.832 2060.89 357.289 2034.41 357.289C2012.79 357.289 1994.47 356.706 1978.07 340.303C1956 318.237 1967.69 299.962 1958.42 299.962H1918.42C1918.42 357.084 1969.05 391.951 2021.08 391.951C2053.72 391.951 2078.33 389.083 2102.43 370.652C2127.66 351.368 2133.06 331.145 2133.06 299.962C2133.06 271.061 2110.67 254.283 2088.63 244.413C2080.62 240.828 2071.39 238.629 2061.85 236.529C2033.04 230.189 1971.75 225.948 1971.75 191.977V185.311C1971.75 160.797 1996.1 143.983 2021.08 143.983C2041.37 143.983 2054.13 145.679 2069.42 160.969C2074.73 166.283 2078.2 170.221 2080.91 177.471C2083.38 184.063 2085.74 191.955 2086.4 199.975H2129.07C2129.07 183.111 2125.88 173.486 2119.31 160.406C2113.78 149.4 2107.63 143.087 2099.43 134.957C2071.38 107.162 2021.72 103.411 1982.9 116.467C1971.7 120.234 1963.87 125.773 1955.73 131.956C1941.4 142.838 1927.76 164.035 1927.76 189.31H1927.76Z" fill="white"/>
<path fill-rule="evenodd" clip-rule="evenodd" d="M1437.15 270.632C1437.15 314.26 1442.09 335.494 1461.69 360.746C1465.73 365.95 1471.02 370.036 1476.37 374.068C1501.39 392.959 1536.7 397.343 1566.88 392.367C1575.5 390.947 1579.59 389.726 1586.98 387.136C1610.16 379.013 1630.39 361.593 1640.71 339.546C1645.27 329.808 1650.46 312.305 1650.46 298.629V113.319H1607.8V293.296C1607.8 333.973 1583.43 351.78 1546.07 355.638C1531.48 357.145 1511.47 350.159 1499.57 340.194C1488.87 331.231 1481.15 311.57 1481.15 295.962V113.318H1437.15V270.632L1437.15 270.632Z" fill="white"/>
<path fill-rule="evenodd" clip-rule="evenodd" d="M830.562 161.313L841.059 192.144C844.803 202.562 848.54 212.535 852.663 223.201C855.147 229.628 874.094 279.749 874.556 285.297H783.901L806.565 222.64C808.577 217.566 810.146 212.477 812.286 207.029L823.897 175.979C827.484 166.922 826.281 164.45 830.562 161.313ZM702.578 387.952H745.24L764.67 335.391C766.477 330.678 768.576 319.96 773.236 319.96H885.222C889.94 319.96 890.969 327.327 893.712 335.467L913.219 387.952H958.547L860.828 131.048C858.605 125.352 855.86 118.902 854.559 113.319H806.565L728.107 318.826C725.373 326.226 703.075 381.989 702.578 387.952Z" fill="white"/>
<path fill-rule="evenodd" clip-rule="evenodd" d="M1707.79 387.951H1882.43V350.622H1750.45V265.299H1869.1V227.971H1750.45V150.647H1879.76V113.318H1707.79V387.951Z" fill="white"/>
<path fill-rule="evenodd" clip-rule="evenodd" d="M357.289 102.653V158.646C357.289 167.462 367.137 177.31 375.954 177.31H557.265C568.116 177.31 577.263 168.164 577.263 157.312V102.653C577.263 93.8359 567.414 83.9877 558.598 83.9877H375.954C367.628 83.9877 357.289 94.3261 357.289 102.653V102.653Z" fill="#F0AC27"/>
<path fill-rule="evenodd" clip-rule="evenodd" d="M2149.06 151.98H2238.38V387.951H2281.05V151.98H2367.7C2370.77 151.98 2371.7 151.052 2371.7 147.98V113.318H2149.06V151.979V151.98Z" fill="white"/>
<path fill-rule="evenodd" clip-rule="evenodd" d="M973.211 143.981C973.211 147.053 974.139 147.981 977.211 147.981H1029.2V387.951H1069.2V113.318H973.212V143.981H973.211Z" fill="white"/>
</svg>
