<svg width="578" height="523" viewBox="0 0 578 523" fill="none" xmlns="http://www.w3.org/2000/svg">
<path fill-rule="evenodd" clip-rule="evenodd" d="M66.6596 307.96C66.6596 327.171 69.1977 342.266 74.8133 359.799C79.1013 373.186 83.4448 384.84 88.9379 397.668C93.9836 409.452 100.987 420.755 107.722 430.878C145.627 487.854 209.642 522.6 279.966 522.6C321.299 522.6 356.783 520.309 392.848 503.499C411.837 494.647 434.854 481.673 449.591 466.92C452.903 463.603 454.289 463.165 457.601 460.266C462.997 455.542 465.295 451.29 470.282 446.284C474.809 441.739 478.014 436.727 482.036 431.375C490.289 420.392 496.114 409.997 503.041 397.719C514.05 378.203 527.934 333.98 527.934 311.959C527.934 304.412 521.026 289.295 514.602 289.295H442.611C427.852 289.295 432.38 319.943 407.154 357.825C392.921 379.198 376.054 395.814 352.424 407.082C317.143 423.905 260.267 426.312 224.514 404.739C210.051 396.013 200.054 385.634 189.71 372.885C180.513 361.549 172.57 344.571 166.821 330.449C162.746 320.441 158.074 289.296 141.316 289.296H81.3236C72.5293 289.296 66.6587 298.847 66.6587 307.96H66.6596Z" fill="#1D4ED8"/>
<path fill-rule="evenodd" clip-rule="evenodd" d="M0.000894638 89.3215V141.315C0.000894638 154.608 7.28861 164.786 19.9352 165.376C37.0738 166.173 42.9936 164.898 63.9926 166.646C68.6268 186.539 55.0211 230.638 86.6564 230.638H146.649C173.559 230.638 165.314 183.694 165.314 171.978C165.314 156.851 208.723 172.195 222.309 160.982C225.896 158.021 230.639 152.632 230.639 146.648V83.9895C230.639 75.7857 222.091 65.3014 208.048 65.2522C194.572 65.2057 177.952 66.6255 166.647 63.9917C162.684 46.9774 177.194 0 143.983 0H86.6564C73.7182 0 65.5027 10.0164 65.2603 22.5986C65.0706 32.4762 67.3045 61.4759 63.0004 64.3334C50.9434 72.3404 0 49.7267 0 89.3224L0.000894638 89.3215Z" fill="#F0AC27"/>
<path fill-rule="evenodd" clip-rule="evenodd" d="M357.289 102.653V158.646C357.289 167.462 367.137 177.31 375.954 177.31H557.265C568.116 177.31 577.263 168.164 577.263 157.312V102.653C577.263 93.8359 567.414 83.9877 558.598 83.9877H375.954C367.628 83.9877 357.289 94.3261 357.289 102.653V102.653Z" fill="#F0AC27"/>
</svg>
