<svg width="56" height="56" viewBox="0 0 56 56" fill="none" xmlns="http://www.w3.org/2000/svg">
<rect x="4" y="4" width="48" height="48" rx="24" fill="#FAE3B7"/>
<g clip-path="url(#clip0_6162_58133)">
<path d="M36.5 23.28V21C36.5 19.9 35.6 19 34.5 19H20.5C19.39 19 18.5 19.9 18.5 21V35C18.5 36.1 19.39 37 20.5 37H34.5C35.6 37 36.5 36.1 36.5 35V32.72C37.09 32.37 37.5 31.74 37.5 31V25C37.5 24.26 37.09 23.63 36.5 23.28ZM35.5 25V31H28.5V25H35.5ZM20.5 35V21H34.5V23H28.5C27.4 23 26.5 23.9 26.5 25V31C26.5 32.1 27.4 33 28.5 33H34.5V35H20.5Z" fill="#A0731A"/>
<path d="M31.5 29.5C32.3284 29.5 33 28.8284 33 28C33 27.1716 32.3284 26.5 31.5 26.5C30.6716 26.5 30 27.1716 30 28C30 28.8284 30.6716 29.5 31.5 29.5Z" fill="#A0731A"/>
</g>
<rect x="4" y="4" width="48" height="48" rx="24" stroke="#FCEED4" stroke-width="8"/>
<defs>
<clipPath id="clip0_6162_58133">
<rect width="24" height="24" fill="white" transform="translate(16 16)"/>
</clipPath>
</defs>
</svg>
