<svg width="24" height="24" viewBox="0 0 24 24" fill="none" xmlns="http://www.w3.org/2000/svg">
<rect width="24" height="24" rx="12" fill="#E8EDFB"/>
<path d="M7.73268 8.79935H16.266V9.86602H7.73268V8.79935ZM8.79935 6.66602H15.1993V7.73268H8.79935V6.66602ZM16.266 10.9327H7.73268C7.14602 10.9327 6.66602 11.4127 6.66602 11.9993V16.266C6.66602 16.8527 7.14602 17.3327 7.73268 17.3327H16.266C16.8527 17.3327 17.3327 16.8527 17.3327 16.266V11.9993C17.3327 11.4127 16.8527 10.9327 16.266 10.9327ZM16.266 16.266H7.73268V11.9993H16.266V16.266ZM10.9327 12.3887V15.8713L14.1327 14.1327L10.9327 12.3887Z" fill="#0C1F56"/>
</svg>
