<svg width="63" height="42" viewBox="0 0 63 42" fill="none" xmlns="http://www.w3.org/2000/svg">
<path d="M1.2168 37V27.1357H5.1543C7.15723 27.1357 8.51074 28.4551 8.51074 30.4307V30.4443C8.51074 32.4131 7.15723 33.7393 5.1543 33.7393H2.98047V37H1.2168ZM4.72363 28.5781H2.98047V32.3174H4.72363C5.98828 32.3174 6.72656 31.6338 6.72656 30.4512V30.4375C6.72656 29.2549 5.98828 28.5781 4.72363 28.5781ZM12.0449 37.123C10.623 37.123 9.59082 36.248 9.59082 34.8877V34.874C9.59082 33.541 10.6094 32.7617 12.4277 32.6523L14.3486 32.5361V31.8936C14.3486 31.1484 13.8633 30.7383 12.9473 30.7383C12.168 30.7383 11.6621 31.0186 11.4912 31.5107L11.4844 31.5381H9.87793L9.88477 31.4766C10.0488 30.2188 11.252 29.3848 13.0293 29.3848C14.9502 29.3848 16.0303 30.3145 16.0303 31.8936V37H14.3486V35.9746H14.2324C13.8223 36.6992 13.0293 37.123 12.0449 37.123ZM11.2725 34.8057C11.2725 35.4414 11.8125 35.8174 12.5645 35.8174C13.5898 35.8174 14.3486 35.1475 14.3486 34.2588V33.6572L12.667 33.7666C11.7168 33.8281 11.2725 34.1768 11.2725 34.792V34.8057ZM18.6416 39.625C18.4365 39.625 18.1973 39.6182 17.9922 39.5977V38.292C18.1289 38.3057 18.3203 38.3125 18.498 38.3125C19.1953 38.3125 19.6123 38.0254 19.7969 37.3486L19.8857 37.0068L17.2129 29.5283H19.0723L20.8154 35.3662H20.9453L22.6816 29.5283H24.4727L21.793 37.1572C21.1504 39.0303 20.2959 39.625 18.6416 39.625ZM28.5537 37.1504C26.6533 37.1504 25.5049 36.2754 25.3613 35.0107V34.9971H27.0498L27.0566 35.0107C27.2344 35.5303 27.7334 35.8926 28.5811 35.8926C29.4287 35.8926 30.0166 35.5098 30.0166 34.9492V34.9355C30.0166 34.498 29.6885 34.2109 28.8682 34.0264L27.6582 33.7529C26.2363 33.4385 25.5596 32.7686 25.5596 31.668V31.6611C25.5596 30.3145 26.79 29.3848 28.5537 29.3848C30.3721 29.3848 31.459 30.2871 31.5684 31.4971V31.5107H29.9688L29.9619 31.4902C29.8389 31.0186 29.3467 30.6357 28.5469 30.6357C27.7881 30.6357 27.2412 31.0049 27.2412 31.5654V31.5723C27.2412 32.0098 27.5557 32.2764 28.3623 32.4609L29.5723 32.7275C31.0352 33.0557 31.7256 33.6777 31.7256 34.7646V34.7783C31.7256 36.2002 30.3926 37.1504 28.5537 37.1504ZM36.3262 37.0342C34.6104 37.0342 33.9062 36.46 33.9062 35.0176V30.8477H32.7441V29.5283H33.9062V27.6963H35.6357V29.5283H37.2148V30.8477H35.6357V34.6143C35.6357 35.3594 35.9297 35.6738 36.6406 35.6738C36.8799 35.6738 37.0098 35.667 37.2148 35.6465V36.959C36.9688 37.0068 36.6543 37.0342 36.3262 37.0342ZM40.9473 37.123C39.5254 37.123 38.4932 36.248 38.4932 34.8877V34.874C38.4932 33.541 39.5117 32.7617 41.3301 32.6523L43.251 32.5361V31.8936C43.251 31.1484 42.7656 30.7383 41.8496 30.7383C41.0703 30.7383 40.5645 31.0186 40.3936 31.5107L40.3867 31.5381H38.7803L38.7871 31.4766C38.9512 30.2188 40.1543 29.3848 41.9316 29.3848C43.8525 29.3848 44.9326 30.3145 44.9326 31.8936V37H43.251V35.9746H43.1348C42.7246 36.6992 41.9316 37.123 40.9473 37.123ZM40.1748 34.8057C40.1748 35.4414 40.7148 35.8174 41.4668 35.8174C42.4922 35.8174 43.251 35.1475 43.251 34.2588V33.6572L41.5693 33.7666C40.6191 33.8281 40.1748 34.1768 40.1748 34.792V34.8057ZM50.1826 37.1504C47.9336 37.1504 46.6074 35.6943 46.6074 33.2539V33.2402C46.6074 30.8271 47.9268 29.3848 50.1758 29.3848C52.0967 29.3848 53.2451 30.4512 53.4365 31.9961V32.0234H51.8301L51.8232 32.0029C51.666 31.2783 51.1123 30.7588 50.1826 30.7588C49.0205 30.7588 48.3369 31.6748 48.3369 33.2402V33.2539C48.3369 34.8398 49.0273 35.7695 50.1826 35.7695C51.0645 35.7695 51.6045 35.3662 51.8164 34.5801L51.8301 34.5527L53.4365 34.5459L53.4229 34.6006C53.1768 36.1318 52.0762 37.1504 50.1826 37.1504ZM55.125 37V26.6367H56.8271V32.5908H56.9434L59.6982 29.5283H61.667L58.6592 32.6865L61.8721 37H59.8213L57.4219 33.7666L56.8271 34.375V37H55.125Z" fill="black"/>
<path d="M39.1093 0H23.9432C23.4339 0 23 0.435791 23 0.966317V2.69053C23 3.22105 23.4339 3.65684 23.9432 3.65684H39.1093C39.6375 3.65684 40.0525 3.22105 40.0714 2.69053V0.985262C40.0714 0.435789 39.6375 0 39.1093 0ZM39.1093 9.56842H23.9432C23.6979 9.56842 23.4527 9.66316 23.283 9.85263C23.0943 10.0421 23 10.2695 23 10.5347V12.2589C23 12.7895 23.4339 13.2253 23.9432 13.2253H39.1093C39.6375 13.2253 40.0525 12.8084 40.0714 12.2589V10.5347C40.0525 9.98526 39.6375 9.56842 39.1093 9.56842ZM32.4883 14.3432H23.9432C23.6979 14.3432 23.4527 14.4379 23.283 14.6274C23.1132 14.8168 23 15.0442 23 15.3095V17.0337C23 17.5642 23.4339 18 23.9432 18H32.4694C32.9976 18 33.4126 17.5642 33.4126 17.0526V15.3284C33.4315 14.76 33.0165 14.3242 32.4883 14.3432ZM40.0714 4.77474H23.9432C23.6979 4.77474 23.4527 4.86947 23.283 5.05895C23.1132 5.24842 23 5.47579 23 5.74105V7.46526C23 7.99579 23.4339 8.43158 23.9432 8.43158H40.0525C40.5807 8.43158 40.9957 7.99579 40.9957 7.46526V5.74105C41.0145 5.21053 40.5807 4.79368 40.0714 4.77474Z" fill="#00C3F7"/>
</svg>
