<svg width="845" height="845" viewBox="0 0 845 845" fill="none" xmlns="http://www.w3.org/2000/svg">
<rect width="845" height="845" rx="422.5" fill="white"/>
<g clip-path="url(#clip0_304_18)">
<path fill-rule="evenodd" clip-rule="evenodd" d="M200.66 468.96C200.66 488.171 203.198 503.266 208.813 520.799C213.101 534.186 217.445 545.84 222.938 558.668C227.984 570.452 234.987 581.755 241.722 591.878C279.627 648.854 343.642 683.6 413.966 683.6C455.299 683.6 490.783 681.309 526.848 664.499C545.837 655.647 568.854 642.673 583.591 627.92C586.903 624.603 588.289 624.165 591.601 621.266C596.997 616.542 599.295 612.29 604.282 607.284C608.809 602.739 612.014 597.727 616.036 592.375C624.289 581.392 630.114 570.997 637.041 558.719C648.05 539.203 661.934 494.98 661.934 472.959C661.934 465.412 655.026 450.295 648.602 450.295H576.611C561.852 450.295 566.38 480.943 541.154 518.825C526.921 540.198 510.054 556.814 486.424 568.082C451.143 584.905 394.267 587.312 358.514 565.739C344.051 557.013 334.054 546.634 323.71 533.885C314.513 522.549 306.57 505.571 300.821 491.449C296.746 481.441 292.074 450.296 275.316 450.296H215.324C206.529 450.296 200.66 459.847 200.66 468.96Z" fill="#1D4ED8"/>
<path fill-rule="evenodd" clip-rule="evenodd" d="M134.001 250.322V302.315C134.001 315.608 141.289 325.786 153.935 326.376C171.074 327.173 176.994 325.898 197.993 327.646C202.627 347.539 189.021 391.638 220.656 391.638H280.649C307.559 391.638 299.314 344.694 299.314 332.978C299.314 317.851 342.723 333.195 356.309 321.982C359.896 319.021 364.639 313.632 364.639 307.648V244.99C364.639 236.786 356.091 226.301 342.048 226.252C328.572 226.206 311.952 227.625 300.647 224.992C296.684 207.977 311.194 161 277.983 161H220.656C207.718 161 199.503 171.016 199.26 183.599C199.071 193.476 201.305 222.476 197 225.333C184.943 233.34 134 210.727 134 250.322L134.001 250.322Z" fill="#F0AC27"/>
<path fill-rule="evenodd" clip-rule="evenodd" d="M491.289 263.653V319.646C491.289 328.462 501.137 338.31 509.954 338.31H691.265C702.116 338.31 711.263 329.164 711.263 318.312V263.653C711.263 254.836 701.414 244.987 692.598 244.987H509.954C501.628 244.987 491.289 255.326 491.289 263.653Z" fill="#F0AC27"/>
</g>
<defs>
<clipPath id="clip0_304_18">
<rect width="578" height="523" fill="white" transform="translate(134 161)"/>
</clipPath>
</defs>
</svg>
