<svg width="24" height="24" viewBox="0 0 24 24" fill="none" xmlns="http://www.w3.org/2000/svg">
<circle cx="12" cy="12" r="12" fill="#323A46"/>
<path d="M12 14.8C13.1782 14.8 14.1333 13.8449 14.1333 12.6667C14.1333 11.4885 13.1782 10.5333 12 10.5333C10.8218 10.5333 9.86665 11.4885 9.86665 12.6667C9.86665 13.8449 10.8218 14.8 12 14.8Z" fill="white"/>
<path d="M9.99998 6L8.77998 7.33333H6.66665C5.93331 7.33333 5.33331 7.93333 5.33331 8.66667V16.6667C5.33331 17.4 5.93331 18 6.66665 18H17.3333C18.0666 18 18.6666 17.4 18.6666 16.6667V8.66667C18.6666 7.93333 18.0666 7.33333 17.3333 7.33333H15.22L14 6H9.99998ZM12 16C10.16 16 8.66665 14.5067 8.66665 12.6667C8.66665 10.8267 10.16 9.33333 12 9.33333C13.84 9.33333 15.3333 10.8267 15.3333 12.6667C15.3333 14.5067 13.84 16 12 16Z" fill="white"/>
</svg>
