<svg width="168" height="56" viewBox="0 0 168 56" fill="none" xmlns="http://www.w3.org/2000/svg">
<g clip-path="url(#clip0_6940_23183)">
<path d="M154.189 0.000182H13.3486C12.8352 0.000182 12.328 0.000182 11.8159 0.002982C11.3873 0.005782 10.9621 0.013916 10.5294 0.020762C9.58932 0.0318245 8.65145 0.114529 7.72394 0.268156C6.79773 0.425128 5.90054 0.721064 5.06271 1.14596C4.2259 1.57444 3.46128 2.13122 2.7966 2.79608C2.12842 3.45907 1.57145 4.2254 1.14709 5.06561C0.72156 5.90413 0.426497 6.8027 0.27209 7.73025C0.116215 8.65664 0.0323377 9.59371 0.02121 10.5331C0.008218 10.9623 0.006846 11.393 0 11.8223V44.1822C0.006846 44.6169 0.008218 45.038 0.02121 45.4729C0.0323411 46.4122 0.116219 47.3492 0.27209 48.2755C0.42607 49.2036 0.721151 50.1027 1.14709 50.9416C1.57126 51.779 2.12831 52.5423 2.7966 53.2016C3.45876 53.8694 4.22387 54.4266 5.06271 54.8518C5.90054 55.2778 6.79763 55.5755 7.72394 55.7349C8.65161 55.8873 9.58938 55.97 10.5294 55.9824C10.9621 55.9919 11.3873 55.9974 11.8159 55.9974C12.3279 56.0002 12.8352 56.0002 13.3486 56.0002H154.189C154.692 56.0002 155.203 56.0002 155.706 55.9974C156.133 55.9974 156.57 55.9919 156.997 55.9824C157.935 55.9707 158.871 55.8879 159.797 55.7349C160.726 55.5744 161.627 55.2767 162.468 54.8518C163.307 54.4263 164.071 53.8692 164.733 53.2016C165.399 52.5397 165.957 51.777 166.387 50.9416C166.809 50.1021 167.102 49.2031 167.253 48.2755C167.41 47.3491 167.496 46.4123 167.513 45.4729C167.519 45.038 167.519 44.6169 167.519 44.1822C167.53 43.6736 167.53 43.1678 167.53 42.6509V13.3508C167.53 12.8381 167.53 12.3295 167.519 11.8223C167.519 11.393 167.519 10.9623 167.513 10.533C167.496 9.59357 167.41 8.65671 167.253 7.7302C167.101 6.80318 166.809 5.90469 166.387 5.06555C165.523 3.38146 164.152 2.01062 162.468 1.14583C161.627 0.721976 160.726 0.426119 159.797 0.26803C158.871 0.113726 157.935 0.0309929 156.997 0.020566C156.57 0.013734 156.133 0.00553 155.706 0.0028C155.203 0 154.692 0 154.189 0V0.000182Z" fill="#A6A6A6"/>
<path d="M11.8193 54.7751C11.3927 54.7751 10.9765 54.7696 10.5533 54.7601C9.67659 54.7487 8.80193 54.6724 7.9365 54.5318C7.12952 54.3928 6.34778 54.1343 5.61706 53.7647C4.89304 53.3982 4.23267 52.9177 3.66126 52.3415C3.08158 51.7721 2.59896 51.1116 2.23255 50.3864C1.86209 49.6564 1.60571 48.874 1.47235 48.0663C1.32832 47.1985 1.2504 46.3209 1.23925 45.4413C1.23037 45.146 1.21875 44.163 1.21875 44.163V11.8222C1.21875 11.8222 1.23113 10.8542 1.23932 10.5698C1.24999 9.69157 1.32746 8.81541 1.47106 7.94892C1.60467 7.13905 1.86125 6.35435 2.2319 5.62198C2.59697 4.89722 3.07691 4.2363 3.6531 3.66485C4.22864 3.08797 4.89112 2.60494 5.61637 2.23339C6.34542 1.86503 7.12568 1.60832 7.93102 1.47188C8.7993 1.32987 9.67699 1.25309 10.5567 1.24219L11.82 1.2251H155.696L156.974 1.24288C157.846 1.25324 158.716 1.32933 159.576 1.4705C160.39 1.60866 161.178 1.86716 161.915 2.23749C163.368 2.98628 164.551 4.17093 165.296 5.6254C165.661 6.35271 165.914 7.13101 166.046 7.93388C166.191 8.80749 166.272 9.69053 166.289 10.576C166.293 10.9725 166.293 11.3983 166.293 11.8222C166.304 12.3472 166.304 12.8469 166.304 13.3507V42.6508C166.304 43.1594 166.304 43.6557 166.293 44.1561C166.293 44.6114 166.293 45.0284 166.288 45.4577C166.271 46.3273 166.191 47.1946 166.048 48.0526C165.918 48.8661 165.663 49.6546 165.292 50.3906C164.923 51.108 164.443 51.7627 163.87 52.3306C163.299 52.9099 162.637 53.3932 161.911 53.7621C161.176 54.1344 160.389 54.3939 159.576 54.5318C158.711 54.6731 157.836 54.7494 156.959 54.7601C156.549 54.7696 156.12 54.7751 155.703 54.7751L154.185 54.7779L11.8193 54.7751Z" fill="black"/>
<path d="M34.6772 28.4208C34.6922 27.2522 35.0026 26.1065 35.5795 25.0902C36.1563 24.0738 36.9808 23.2199 37.9764 22.6079C37.3439 21.7046 36.5096 20.9613 35.5396 20.437C34.5697 19.9126 33.4908 19.6216 32.3887 19.5871C30.0378 19.3404 27.7587 20.9939 26.5607 20.9939C25.3395 20.9939 23.495 19.6116 21.5088 19.6525C20.224 19.694 18.9719 20.0676 17.8745 20.7369C16.7771 21.4062 15.8717 22.3483 15.2467 23.4715C12.5391 28.1593 14.5587 35.0488 17.1524 38.838C18.45 40.6935 19.9666 42.7661 21.951 42.6926C23.8929 42.6121 24.6182 41.4544 26.9622 41.4544C29.2845 41.4544 29.9649 42.6926 31.9896 42.6459C34.0733 42.6121 35.3862 40.7822 36.6383 38.9091C37.5707 37.587 38.2881 36.1258 38.7641 34.5796C37.5535 34.0676 36.5204 33.2105 35.7937 32.1153C35.0669 31.0201 34.6786 29.7352 34.6772 28.4208Z" fill="white"/>
<path d="M30.8499 17.0959C31.986 15.732 32.5457 13.9789 32.4102 12.209C30.6744 12.3913 29.0711 13.2209 27.9196 14.5324C27.3566 15.1732 26.9254 15.9186 26.6506 16.7261C26.3759 17.5335 26.263 18.3872 26.3184 19.2384C27.1866 19.2473 28.0455 19.0591 28.8304 18.688C29.6153 18.3169 30.3058 17.7725 30.8499 17.0959Z" fill="white"/>
<path d="M59.2203 37.9957H52.5936L51.0021 42.6948H48.1953L54.4721 25.3096H57.3883L63.665 42.6948H60.8103L59.2203 37.9957ZM53.2799 35.8274H58.5327L55.9432 28.2012H55.8708L53.2799 35.8274Z" fill="white"/>
<path d="M77.2209 36.3575C77.2209 40.2964 75.1127 42.8271 71.9313 42.8271C71.1254 42.8692 70.3239 42.6836 69.6186 42.2914C68.9133 41.8992 68.3326 41.3163 67.9432 40.6095H67.883V46.8876H65.2812V30.0192H67.7997V32.1274H67.8475C68.2548 31.424 68.8453 30.8441 69.5559 30.4495C70.2666 30.055 71.071 29.8604 71.8834 29.8866C75.1004 29.8866 77.2209 32.4296 77.2209 36.3575ZM74.5467 36.3575C74.5467 33.7913 73.2205 32.1042 71.1971 32.1042C69.2092 32.1042 67.8721 33.8269 67.8721 36.3575C67.8721 38.9114 69.2092 40.6218 71.1971 40.6218C73.2206 40.6218 74.5467 38.947 74.5467 36.3575Z" fill="white"/>
<path d="M91.1741 36.3575C91.1741 40.2964 89.0659 42.827 85.8844 42.827C85.0785 42.8692 84.277 42.6835 83.5717 42.2914C82.8664 41.8992 82.2858 41.3163 81.8963 40.6094H81.8361V46.8876H79.2344V30.0192H81.7527V32.1274H81.8006C82.2079 31.424 82.7983 30.8441 83.509 30.4495C84.2197 30.0549 85.0241 29.8604 85.8365 29.8866C89.0536 29.8866 91.1741 32.4296 91.1741 36.3575ZM88.4998 36.3575C88.4998 33.7913 87.1737 32.1042 85.1502 32.1042C83.1623 32.1042 81.8252 33.8268 81.8252 36.3575C81.8252 38.9114 83.1623 40.6218 85.1502 40.6218C87.1737 40.6218 88.4998 38.947 88.4998 36.3575H88.4998Z" fill="white"/>
<path d="M100.39 37.8507C100.583 39.5747 102.257 40.7067 104.546 40.7067C106.739 40.7067 108.317 39.5746 108.317 38.0201C108.317 36.6707 107.365 35.8627 105.112 35.309L102.859 34.7662C99.6667 33.9951 98.1846 32.5022 98.1846 30.0795C98.1846 27.0799 100.799 25.0195 104.511 25.0195C108.184 25.0195 110.703 27.0799 110.787 30.0795H108.161C108.004 28.3445 106.57 27.2973 104.474 27.2973C102.378 27.2973 100.944 28.3569 100.944 29.899C100.944 31.1281 101.86 31.8514 104.1 32.405L106.016 32.8754C109.583 33.7189 111.065 35.1518 111.065 37.6947C111.065 40.9472 108.474 42.9843 104.353 42.9843C100.498 42.9843 97.8947 40.9951 97.7266 37.8505L100.39 37.8507Z" fill="white"/>
<path d="M116.684 27.021V30.0206H119.094V32.081H116.684V39.0687C116.684 40.1542 117.166 40.6601 118.226 40.6601C118.512 40.6551 118.798 40.635 119.082 40.5999V42.6479C118.605 42.7369 118.121 42.7772 117.637 42.7682C115.07 42.7682 114.07 41.8044 114.07 39.3461V32.081H112.227V30.0206H114.069V27.021H116.684Z" fill="white"/>
<path d="M120.484 36.3589C120.484 32.3708 122.833 29.8647 126.496 29.8647C130.171 29.8647 132.509 32.3707 132.509 36.3589C132.509 40.3579 130.183 42.853 126.496 42.853C122.81 42.853 120.484 40.3579 120.484 36.3589ZM129.858 36.3589C129.858 33.6231 128.604 32.0085 126.496 32.0085C124.388 32.0085 123.135 33.6355 123.135 36.3589C123.135 39.1056 124.388 40.7079 126.496 40.7079C128.604 40.7079 129.858 39.1056 129.858 36.3589H129.858Z" fill="white"/>
<path d="M134.656 30.0191H137.138V32.1765H137.198C137.366 31.5027 137.761 30.9073 138.316 30.4902C138.871 30.0732 139.553 29.86 140.247 29.8865C140.547 29.8854 140.846 29.918 141.138 29.9836V32.4172C140.76 32.3015 140.365 32.2484 139.969 32.2599C139.591 32.2446 139.214 32.3112 138.865 32.4553C138.515 32.5993 138.2 32.8173 137.943 33.0944C137.685 33.3714 137.491 33.7009 137.372 34.0603C137.254 34.4196 137.215 34.8003 137.258 35.1761V42.6943H134.656L134.656 30.0191Z" fill="white"/>
<path d="M153.137 38.973C152.787 41.2739 150.546 42.853 147.679 42.853C143.992 42.853 141.703 40.3825 141.703 36.419C141.703 32.4433 144.004 29.8647 147.57 29.8647C151.077 29.8647 153.282 32.2737 153.282 36.1169V37.0083H144.33V37.1655C144.288 37.632 144.347 38.1019 144.501 38.5441C144.655 38.9863 144.902 39.3906 145.224 39.7302C145.547 40.0697 145.938 40.3368 146.371 40.5136C146.805 40.6904 147.271 40.773 147.739 40.7558C148.354 40.8134 148.971 40.671 149.498 40.3498C150.026 40.0285 150.435 39.5457 150.666 38.9729L153.137 38.973ZM144.342 35.1899H150.679C150.702 34.7705 150.638 34.3508 150.492 33.9571C150.345 33.5634 150.119 33.2042 149.827 32.9022C149.535 32.6001 149.184 32.3616 148.795 32.2017C148.407 32.0418 147.99 31.9639 147.57 31.9729C147.146 31.9704 146.726 32.0518 146.334 32.2125C145.942 32.3731 145.586 32.6098 145.285 32.9089C144.985 33.208 144.747 33.5635 144.585 33.955C144.424 34.3466 144.341 34.7663 144.342 35.19V35.1899Z" fill="white"/>
<path d="M52.9549 12.2238C53.5003 12.1847 54.0477 12.2671 54.5574 12.4651C55.0672 12.6631 55.5267 12.9718 55.9027 13.3689C56.2787 13.7659 56.5619 14.2415 56.7319 14.7613C56.9018 15.2811 56.9543 15.8321 56.8855 16.3746C56.8855 19.0434 55.4432 20.5774 52.9549 20.5774H49.9375V12.2238H52.9549ZM51.235 19.396H52.81C53.1997 19.4193 53.5898 19.3554 53.9517 19.209C54.3137 19.0625 54.6384 18.8372 54.9023 18.5494C55.1662 18.2616 55.3626 17.9186 55.4772 17.5453C55.5918 17.1721 55.6218 16.7779 55.5648 16.3916C55.6176 16.0069 55.5847 15.6152 55.4683 15.2447C55.3519 14.8741 55.155 14.5339 54.8918 14.2484C54.6285 13.9629 54.3053 13.7392 53.9454 13.5933C53.5855 13.4473 53.1977 13.3828 52.81 13.4043H51.235V19.396Z" fill="white"/>
<path d="M58.35 17.4238C58.3104 17.0095 58.3578 16.5915 58.4891 16.1966C58.6205 15.8017 58.833 15.4386 59.1129 15.1306C59.3928 14.8227 59.734 14.5766 60.1146 14.4082C60.4952 14.2398 60.9068 14.1528 61.323 14.1528C61.7391 14.1528 62.1507 14.2398 62.5313 14.4082C62.9119 14.5766 63.2531 14.8227 63.533 15.1306C63.8129 15.4386 64.0254 15.8017 64.1568 16.1966C64.2881 16.5915 64.3355 17.0095 64.2959 17.4238C64.3363 17.8385 64.2895 18.257 64.1584 18.6526C64.0274 19.0481 63.8151 19.4119 63.5351 19.7204C63.2551 20.029 62.9136 20.2756 62.5327 20.4444C62.1517 20.6131 61.7396 20.7003 61.323 20.7003C60.9063 20.7003 60.4942 20.6131 60.1132 20.4444C59.7323 20.2756 59.3908 20.029 59.1108 19.7204C58.8308 19.4119 58.6185 19.0481 58.4875 18.6526C58.3564 18.257 58.3096 17.8385 58.35 17.4238ZM63.0162 17.4238C63.0162 16.0573 62.4023 15.2581 61.325 15.2581C60.2436 15.2581 59.6352 16.0573 59.6352 17.4238C59.6352 18.8012 60.2436 19.5942 61.325 19.5942C62.4024 19.5942 63.0162 18.7957 63.0162 17.4238H63.0162Z" fill="white"/>
<path d="M72.2008 20.5775H70.9102L69.6072 15.9346H69.5088L68.2113 20.5775H66.933L65.1953 14.2734H66.4572L67.5865 19.0838H67.6795L68.9756 14.2734H70.1692L71.4652 19.0838H71.5637L72.6875 14.2734H73.9316L72.2008 20.5775Z" fill="white"/>
<path d="M75.3906 14.2729H76.5883V15.2744H76.6813C76.839 14.9147 77.105 14.6132 77.4422 14.4118C77.7794 14.2105 78.171 14.1194 78.5625 14.1512C78.8692 14.1282 79.1772 14.1744 79.4637 14.2865C79.7501 14.3987 80.0076 14.5738 80.2172 14.799C80.4268 15.0242 80.583 15.2936 80.6743 15.5874C80.7655 15.8811 80.7895 16.1917 80.7445 16.4959V20.5769H79.5004V16.8084C79.5004 15.7953 79.0602 15.2915 78.14 15.2915C77.9318 15.2818 77.7239 15.3172 77.5306 15.3954C77.3373 15.4735 77.1632 15.5926 77.0203 15.7443C76.8773 15.896 76.7688 16.0769 76.7023 16.2745C76.6357 16.4721 76.6127 16.6817 76.6348 16.889V20.577H75.3906L75.3906 14.2729Z" fill="white"/>
<path d="M82.7266 11.8125H83.9707V20.5775H82.7266V11.8125Z" fill="white"/>
<path d="M85.7015 17.4219C85.6619 17.0076 85.7093 16.5896 85.8408 16.1947C85.9722 15.7998 86.1847 15.4367 86.4646 15.1287C86.7446 14.8207 87.0858 14.5746 87.4664 14.4063C87.847 14.2379 88.2586 14.1509 88.6748 14.1509C89.091 14.1509 89.5026 14.2379 89.8832 14.4063C90.2639 14.5746 90.6051 14.8207 90.885 15.1287C91.165 15.4367 91.3775 15.7998 91.5089 16.1947C91.6403 16.5896 91.6877 17.0076 91.6481 17.4219C91.6884 17.8367 91.6416 18.2552 91.5105 18.6508C91.3794 19.0463 91.167 19.41 90.887 19.7186C90.607 20.0272 90.2655 20.2738 89.8846 20.4425C89.5036 20.6112 89.0915 20.6984 88.6748 20.6984C88.2581 20.6984 87.8461 20.6112 87.4651 20.4425C87.0841 20.2738 86.7426 20.0272 86.4626 19.7186C86.1826 19.41 85.9702 19.0463 85.8391 18.6508C85.7081 18.2552 85.6612 17.8367 85.7015 17.4219ZM90.3677 17.4219C90.3677 16.0554 89.7538 15.2563 88.6765 15.2563C87.5951 15.2563 86.9867 16.0554 86.9867 17.4219C86.9867 18.7994 87.5951 19.5923 88.6765 19.5923C89.7539 19.5923 90.3677 18.7939 90.3677 17.4219H90.3677Z" fill="white"/>
<path d="M92.9609 18.7958C92.9609 17.661 93.8059 17.0068 95.3057 16.9139L97.0133 16.8154V16.2713C97.0133 15.6055 96.573 15.2295 95.7227 15.2295C95.0281 15.2295 94.5469 15.4845 94.4088 15.9302H93.2043C93.3314 14.8474 94.35 14.1528 95.7801 14.1528C97.3606 14.1528 98.252 14.9396 98.252 16.2713V20.5786H97.0543V19.6927H96.9559C96.7561 20.0105 96.4755 20.2695 96.1428 20.4434C95.8102 20.6173 95.4373 20.6998 95.0623 20.6825C94.7977 20.71 94.5302 20.6818 94.2771 20.5996C94.024 20.5174 93.791 20.3831 93.593 20.2054C93.395 20.0276 93.2365 19.8103 93.1276 19.5675C93.0188 19.3248 92.962 19.0619 92.9609 18.7958ZM97.0133 18.2571V17.7301L95.4738 17.8285C94.6057 17.8866 94.2119 18.1819 94.2119 18.7377C94.2119 19.3051 94.7041 19.6352 95.3809 19.6352C95.5792 19.6553 95.7795 19.6353 95.9699 19.5764C96.1603 19.5174 96.3369 19.4208 96.4892 19.2922C96.6415 19.1637 96.7664 19.0057 96.8565 18.8279C96.9465 18.6501 96.9998 18.456 97.0133 18.2571Z" fill="white"/>
<path d="M99.8828 17.4228C99.8828 15.4308 100.907 14.1689 102.5 14.1689C102.894 14.1507 103.285 14.2451 103.627 14.4409C103.969 14.6368 104.249 14.926 104.433 15.2749H104.526V11.8125H105.77V20.5775H104.578V19.5815H104.479C104.281 19.928 103.992 20.2137 103.643 20.4075C103.294 20.6014 102.899 20.6961 102.5 20.6814C100.896 20.6815 99.8828 19.4196 99.8828 17.4228ZM101.168 17.4228C101.168 18.7599 101.798 19.5645 102.852 19.5645C103.901 19.5645 104.549 18.7483 104.549 17.4282C104.549 16.1144 103.894 15.2865 102.852 15.2865C101.805 15.2865 101.168 16.0966 101.168 17.4228H101.168Z" fill="white"/>
<path d="M110.92 17.4238C110.881 17.0095 110.928 16.5915 111.059 16.1966C111.191 15.8017 111.403 15.4386 111.683 15.1306C111.963 14.8227 112.304 14.5766 112.685 14.4082C113.065 14.2398 113.477 14.1528 113.893 14.1528C114.309 14.1528 114.721 14.2398 115.102 14.4082C115.482 14.5766 115.823 14.8227 116.103 15.1306C116.383 15.4386 116.596 15.8017 116.727 16.1966C116.858 16.5915 116.906 17.0095 116.866 17.4238C116.907 17.8385 116.86 18.257 116.729 18.6526C116.598 19.0481 116.385 19.4119 116.105 19.7204C115.825 20.029 115.484 20.2756 115.103 20.4444C114.722 20.6131 114.31 20.7003 113.893 20.7003C113.477 20.7003 113.065 20.6131 112.684 20.4444C112.303 20.2756 111.961 20.029 111.681 19.7204C111.401 19.4119 111.189 19.0481 111.058 18.6526C110.927 18.257 110.88 17.8385 110.92 17.4238ZM115.587 17.4238C115.587 16.0573 114.973 15.2581 113.895 15.2581C112.814 15.2581 112.206 16.0573 112.206 17.4238C112.206 18.8012 112.814 19.5942 113.895 19.5942C114.973 19.5942 115.587 18.7957 115.587 17.4238Z" fill="white"/>
<path d="M118.539 14.2729H119.737V15.2744H119.83C119.987 14.9147 120.253 14.6132 120.591 14.4118C120.928 14.2105 121.319 14.1194 121.711 14.1512C122.018 14.1282 122.326 14.1744 122.612 14.2865C122.899 14.3987 123.156 14.5738 123.366 14.799C123.575 15.0242 123.731 15.2936 123.823 15.5874C123.914 15.8811 123.938 16.1917 123.893 16.4959V20.5769H122.649V16.8084C122.649 15.7953 122.209 15.2915 121.288 15.2915C121.08 15.2818 120.872 15.3172 120.679 15.3954C120.486 15.4735 120.312 15.5926 120.169 15.7443C120.026 15.896 119.917 16.0769 119.851 16.2745C119.784 16.4721 119.761 16.6817 119.783 16.889V20.577H118.539V14.2729Z" fill="white"/>
<path d="M130.918 12.7041V14.3023H132.284V15.3503H130.918V18.5919C130.918 19.2522 131.19 19.5414 131.81 19.5414C131.968 19.5409 132.127 19.5313 132.284 19.5127V20.549C132.061 20.589 131.834 20.6102 131.607 20.6126C130.224 20.6126 129.673 20.1259 129.673 18.9104V15.3502H128.672V14.3023H129.673V12.7041H130.918Z" fill="white"/>
<path d="M133.984 11.8125H135.218V15.2865H135.316C135.481 14.9235 135.755 14.6203 136.099 14.4182C136.443 14.2161 136.841 14.125 137.238 14.1572C137.543 14.1406 137.848 14.1916 138.132 14.3064C138.415 14.4213 138.669 14.5972 138.877 14.8217C139.084 15.0462 139.239 15.3137 139.331 15.605C139.423 15.8964 139.45 16.2046 139.409 16.5074V20.5775H138.164V16.8143C138.164 15.8074 137.695 15.2974 136.816 15.2974C136.602 15.2799 136.387 15.3093 136.186 15.3836C135.984 15.4579 135.802 15.5752 135.651 15.7275C135.499 15.8797 135.383 16.0631 135.31 16.2649C135.237 16.4667 135.21 16.682 135.229 16.8957V20.5775H133.984L133.984 11.8125Z" fill="white"/>
<path d="M146.663 18.8746C146.494 19.4508 146.128 19.9491 145.628 20.2826C145.129 20.616 144.528 20.7632 143.931 20.6984C143.516 20.7094 143.103 20.6298 142.722 20.4653C142.34 20.3008 141.999 20.0552 141.722 19.7456C141.445 19.436 141.238 19.0698 141.117 18.6725C140.996 18.2751 140.962 17.8561 141.019 17.4445C140.964 17.0317 140.998 16.6118 141.119 16.2133C141.24 15.8147 141.445 15.4468 141.721 15.1345C141.996 14.8222 142.336 14.5728 142.716 14.4031C143.097 14.2334 143.509 14.1474 143.926 14.151C145.68 14.151 146.738 15.3494 146.738 17.329V17.7631H142.286V17.8328C142.267 18.0642 142.296 18.297 142.372 18.5165C142.448 18.7359 142.568 18.9371 142.726 19.1072C142.885 19.2772 143.076 19.4123 143.29 19.5039C143.503 19.5954 143.733 19.6414 143.965 19.6388C144.263 19.6746 144.564 19.621 144.832 19.4849C145.099 19.3488 145.319 19.1363 145.465 18.8746L146.663 18.8746ZM142.286 16.843H145.471C145.486 16.6314 145.458 16.4189 145.386 16.2191C145.315 16.0193 145.202 15.8366 145.056 15.6828C144.91 15.529 144.734 15.4075 144.538 15.326C144.342 15.2446 144.131 15.205 143.919 15.2099C143.704 15.2072 143.49 15.2476 143.291 15.3287C143.091 15.4098 142.91 15.53 142.758 15.6822C142.606 15.8344 142.486 16.0155 142.405 16.2149C142.324 16.4142 142.284 16.6278 142.286 16.843H142.286Z" fill="white"/>
</g>
<defs>
<clipPath id="clip0_6940_23183">
<rect width="167.53" height="56" fill="white"/>
</clipPath>
</defs>
</svg>
