<svg width="190" height="56" viewBox="0 0 190 56" fill="none" xmlns="http://www.w3.org/2000/svg">
<g clip-path="url(#clip0_6940_23184)">
<path d="M181.766 55.8608H7.63705C3.8062 55.8608 0.671875 52.7265 0.671875 48.8957V7.10462C0.671875 3.27377 3.8062 0.139442 7.63705 0.139442H181.766C185.597 0.139442 188.732 3.27377 188.732 7.10462V48.8957C188.732 52.7265 185.597 55.8608 181.766 55.8608Z" fill="black"/>
<path d="M181.766 0.139442H7.63705C3.8062 0.139442 0.671875 3.27377 0.671875 7.10462V48.8957C0.671875 52.7265 3.8062 55.8608 7.63705 55.8608H181.766C185.597 55.8608 188.732 52.7265 188.732 48.8957V7.10462C188.732 3.27377 185.597 0.139442 181.766 0.139442ZM181.766 1.25387C184.993 1.25387 187.617 3.87891 187.617 7.10462V48.8957C187.617 52.1219 184.993 54.747 181.766 54.747H7.63705C4.41134 54.747 1.7863 52.1219 1.7863 48.8957V7.10462C1.7863 3.87891 4.41134 1.25387 7.63705 1.25387H181.766Z" fill="#A6A6A6"/>
<path d="M66.7241 14.4088C66.7241 15.5759 66.3785 16.5054 65.6863 17.1987C64.9001 18.0231 63.8754 18.4355 62.6157 18.4355C61.4093 18.4355 60.3836 18.0176 59.5401 17.1807C58.6951 16.3443 58.2734 15.3072 58.2734 14.0698C58.2734 12.8318 58.6951 11.7952 59.5401 10.9583C60.3836 10.1219 61.4093 9.70345 62.6157 9.70345C63.2142 9.70345 63.7873 9.82046 64.3315 10.0539C64.8756 10.288 65.312 10.5986 65.6385 10.9877L64.9039 11.7228C64.3505 11.0617 63.5887 10.7314 62.6157 10.7314C61.7358 10.7314 60.9751 11.0405 60.333 11.6591C59.6908 12.2785 59.3699 13.0816 59.3699 14.0698C59.3699 15.058 59.6908 15.8611 60.333 16.4804C60.9751 17.0991 61.7358 17.4082 62.6157 17.4082C63.549 17.4082 64.3271 17.0974 64.9501 16.475C65.3545 16.0695 65.5884 15.5059 65.6509 14.782H62.6157V13.7781H66.6659C66.7051 13.9964 66.7241 14.2059 66.7241 14.4088Z" fill="white"/>
<path d="M66.7306 14.4087H66.5913C66.5902 15.5492 66.2571 16.435 65.5943 17.1L65.5928 17.1012L65.5922 17.1023C64.831 17.8982 63.8525 18.2944 62.6222 18.2961C61.448 18.2944 60.4652 17.8939 59.6445 17.0821C58.8257 16.2685 58.4208 15.2754 58.4192 14.0696C58.4208 12.8633 58.8257 11.8707 59.6445 11.0578C60.4652 10.2453 61.448 9.84428 62.6222 9.84261C63.2028 9.84261 63.7557 9.95586 64.2829 10.1817C64.8107 10.4092 65.2277 10.7073 65.5383 11.0774L65.645 10.9875L65.5466 10.8891L64.8119 11.6247L64.9104 11.7226L65.0176 11.6335C64.4385 10.9396 63.6257 10.5898 62.6222 10.5919C61.7097 10.5908 60.907 10.9168 60.2431 11.559C59.5728 12.2032 59.236 13.0515 59.2371 14.0696C59.236 15.0878 59.5728 15.936 60.2431 16.5803C60.907 17.2225 61.7097 17.5485 62.6222 17.5473C63.5864 17.549 64.4082 17.2219 65.0551 16.5733C65.4872 16.1401 65.7321 15.54 65.7963 14.7939L65.8093 14.6426H62.7615V13.9172H66.6724V13.7779L66.5352 13.8024C66.5734 14.0136 66.5913 14.2144 66.5913 14.4087H66.7306H66.8699C66.8699 14.197 66.8503 13.9794 66.8095 13.753L66.7889 13.6386H62.4828V14.7819V14.9212H65.6574V14.7819L65.5187 14.7699C65.4573 15.4709 65.2341 15.9987 64.8581 16.3764C64.2595 16.9727 63.525 17.2671 62.6222 17.2687C61.7749 17.2676 61.0561 16.9759 60.4363 16.3801C59.8226 15.7864 59.5172 15.0285 59.5157 14.0696C59.5172 13.1108 59.8226 12.3529 60.4363 11.7591C61.0561 11.1633 61.7749 10.8716 62.6222 10.8705C63.5641 10.8728 64.2754 11.184 64.8038 11.8125L64.9017 11.929L65.7435 11.086L65.8338 10.9958L65.7516 10.8983C65.4093 10.4902 64.9534 10.1663 64.3928 9.92591C63.8313 9.68478 63.2387 9.564 62.6222 9.564C61.3837 9.56289 60.315 9.99821 59.4481 10.8597C58.578 11.7194 58.1395 12.8002 58.1406 14.0696C58.1395 15.3385 58.578 16.4198 59.4487 17.2802C60.315 18.1411 61.3837 18.5758 62.6222 18.5747C63.9118 18.5758 64.9817 18.1475 65.7935 17.2948L65.6928 17.1985L65.7913 17.297C66.5129 16.576 66.8709 15.602 66.8699 14.4087H66.7306Z" fill="white"/>
<path d="M73.145 10.9176H69.3387V13.5677H72.7712V14.5721H69.3387V17.2222H73.145V18.249H68.2656V9.89081H73.145V10.9176Z" fill="white"/>
<path d="M73.1515 10.9175V10.7782H69.2059V13.7069H72.6385V14.4322L69.2059 14.4327V17.3614H73.0122V18.1096H68.4114V10.03H73.0122V10.9175H73.1515V10.7782V10.9175H73.2908V9.89067V9.75137H68.1328V18.3882H73.2908V17.2221V17.0828H69.4845V14.7113H72.9171V13.5676V13.4283H69.4845V11.0568H73.2908V10.9175H73.1515Z" fill="white"/>
<path d="M77.6748 18.249H76.6001V10.9176H74.2656V9.89081H80.0093V10.9176H77.6748V18.249Z" fill="white"/>
<path d="M77.6735 18.2489V18.1096H76.738V10.7782H74.4036V10.03H79.8686V10.7782H77.5342V18.2489H77.6735V18.1096V18.2489H77.8128V11.0568H80.1472V9.89067V9.75137H74.125V10.9175V11.0568H76.4594V18.3882H77.6735H77.8128V18.2489H77.6735Z" fill="white"/>
<path d="M84.1641 18.249V9.89081H85.2377V18.249H84.1641Z" fill="white"/>
<path d="M84.1706 18.2489H84.3099V10.03H85.1048V18.1096H84.1706V18.2489H84.3099H84.1706V18.3882H85.2442H85.3835V9.75137H84.1706H84.0312V18.3882H84.1706V18.2489Z" fill="white"/>
<path d="M90.0028 18.249H88.9281V10.9176H86.5938V9.89081H92.3372V10.9176H90.0028V18.249Z" fill="white"/>
<path d="M90.0015 18.2489V18.1096H89.066V10.7782H86.7317V10.03H92.1966V10.7782H89.8621V18.2489H90.0015V18.1096V18.2489H90.1408V11.0568H92.4752V9.89067V9.75137H86.4531V10.9175V11.0568H88.7874V18.3882H90.0015H90.1408V18.2489H90.0015Z" fill="white"/>
<path d="M97.8758 16.469C98.4944 17.0953 99.2514 17.4082 100.147 17.4082C101.042 17.4082 101.799 17.0953 102.417 16.469C103.036 15.8427 103.346 15.0421 103.346 14.0698C103.346 13.0974 103.036 12.2969 102.417 11.6706C101.799 11.0442 101.042 10.7314 100.147 10.7314C99.2514 10.7314 98.4944 11.0442 97.8758 11.6706C97.2581 12.2969 96.948 13.0974 96.948 14.0698C96.948 15.0421 97.2581 15.8427 97.8758 16.469ZM103.211 17.1687C102.389 18.0137 101.368 18.4355 100.147 18.4355C98.9243 18.4355 97.9029 18.0137 97.083 17.1687C96.2607 16.3247 95.8516 15.2915 95.8516 14.0698C95.8516 12.8481 96.2607 11.8147 97.083 10.9708C97.9029 10.1257 98.9243 9.70345 100.147 9.70345C101.361 9.70345 102.38 10.1279 103.206 10.9763C104.03 11.8246 104.443 12.8557 104.443 14.0698C104.443 15.2915 104.031 16.3247 103.211 17.1687Z" fill="white"/>
<path d="M97.8745 16.4689L97.7754 16.5668C98.417 17.2182 99.2175 17.549 100.145 17.5473C101.072 17.549 101.874 17.2182 102.515 16.5668C103.16 15.9148 103.485 15.0714 103.484 14.0696C103.485 13.0679 103.16 12.2244 102.515 11.5725C101.874 10.9211 101.072 10.5902 100.145 10.5919C99.2175 10.5902 98.417 10.9211 97.7754 11.5725C97.1311 12.2244 96.8057 13.0679 96.8074 14.0696C96.8057 15.0714 97.1311 15.9148 97.7754 16.5668L97.8745 16.4689L97.9735 16.3709C97.3826 15.7695 97.0871 15.0131 97.086 14.0696C97.0871 13.1261 97.3826 12.3697 97.9735 11.7683C98.5699 11.1671 99.2821 10.8722 100.145 10.8705C101.008 10.8722 101.722 11.1671 102.316 11.7683C102.908 12.3697 103.204 13.1261 103.205 14.0696C103.204 15.0131 102.908 15.7695 102.316 16.3709C101.722 16.9722 101.008 17.2671 100.145 17.2687C99.2821 17.2671 98.5699 16.9722 97.9735 16.3709L97.8745 16.4689ZM103.21 17.1686L103.11 17.0718C102.312 17.8902 101.335 18.2944 100.145 18.2961C98.9552 18.2944 97.9784 17.8902 97.1811 17.0718L97.1774 17.0674L97.1811 17.0718C96.384 16.2506 95.9907 15.2603 95.9895 14.0696C95.9907 12.879 96.384 11.8887 97.1811 11.0675C97.9784 10.2491 98.9552 9.84428 100.145 9.84261C101.327 9.84428 102.302 10.2508 103.105 11.0735C103.905 11.8984 104.3 12.8872 104.302 14.0696C104.3 15.2603 103.906 16.2506 103.11 17.0718L103.21 17.1686L103.31 17.2654C104.155 16.3981 104.582 15.3222 104.581 14.0696C104.582 12.8241 104.153 11.7505 103.305 10.8793C102.456 10.0048 101.392 9.56247 100.145 9.564C98.8915 9.56247 97.825 10.0027 96.9815 10.8739V10.8733C96.1354 11.7412 95.7098 12.817 95.7109 14.0696C95.7098 15.3222 96.1354 16.3981 96.9815 17.266L96.9853 17.2698L96.9815 17.2654C97.825 18.1366 98.8915 18.5758 100.145 18.5747C101.398 18.5758 102.465 18.1366 103.31 17.2654L103.21 17.1686Z" fill="white"/>
<path d="M105.953 18.249V9.89081H107.26L111.322 16.3929H111.369L111.322 14.7822V9.89081H112.397V18.249H111.276L107.026 11.4318H106.98L107.026 13.0431V18.249H105.953Z" fill="white"/>
<path d="M105.952 18.2489H106.091V10.03H107.182L111.244 16.5321H111.367H111.51L111.46 14.7799V10.03H112.256V18.1096H111.352L107.102 11.2923H106.979H106.836L106.886 13.0452V18.1096H105.952V18.2489H106.091H105.952V18.3882H107.025H107.164V13.0407L107.118 11.4279L106.979 11.4316V11.571H107.025V11.4316L106.907 11.5058L111.197 18.3882H112.396H112.535V9.75137H111.321H111.182V14.7837L111.228 16.3966L111.367 16.3928V16.2535H111.321V16.3928L111.439 16.3188L107.336 9.75137H105.952H105.812V18.3882H105.952V18.2489Z" fill="white"/>
<path d="M149.637 41.9306H152.236V24.516H149.637V41.9306ZM173.049 30.7891L170.07 38.3392H169.981L166.888 30.7891H164.088L168.725 41.3418L166.081 47.2116H168.794L175.94 30.7891H173.049ZM158.308 39.9526C157.456 39.9526 156.269 39.5271 156.269 38.4736C156.269 37.1295 157.748 36.6142 159.024 36.6142C160.168 36.6142 160.704 36.8606 161.399 37.1971C161.197 38.8099 159.809 39.9526 158.308 39.9526ZM158.622 30.4081C156.74 30.4081 154.791 31.2374 153.984 33.0745L156.291 34.0377C156.784 33.0745 157.702 32.7605 158.666 32.7605C160.011 32.7605 161.377 33.5675 161.399 35.0014V35.1804C160.929 34.9115 159.921 34.5084 158.689 34.5084C156.202 34.5084 153.67 35.8747 153.67 38.4289C153.67 40.7591 155.709 42.2603 157.993 42.2603C159.742 42.2603 160.704 41.4762 161.31 40.5578H161.399V41.9018H163.908V35.2249C163.908 32.1337 161.601 30.4081 158.622 30.4081ZM142.557 32.909H138.86V26.9397H142.557C144.501 26.9397 145.604 28.5487 145.604 29.9243C145.604 31.2739 144.501 32.909 142.557 32.909ZM142.49 24.516H136.262V41.9306H138.86V35.3328H142.49C145.371 35.3328 148.203 33.247 148.203 29.9243C148.203 26.6018 145.371 24.516 142.49 24.516ZM108.527 39.9558C106.731 39.9558 105.228 38.4523 105.228 36.3873C105.228 34.3005 106.731 32.7742 108.527 32.7742C110.3 32.7742 111.691 34.3005 111.691 36.3873C111.691 38.4523 110.3 39.9558 108.527 39.9558ZM111.512 31.7642H111.422C110.838 31.0687 109.716 30.4403 108.302 30.4403C105.34 30.4403 102.624 33.0435 102.624 36.3873C102.624 39.7088 105.34 42.2897 108.302 42.2897C109.716 42.2897 110.838 41.6612 111.422 40.9435H111.512V41.7962C111.512 44.0632 110.3 45.275 108.347 45.275C106.754 45.275 105.766 44.1301 105.362 43.1652L103.096 44.1078C103.746 45.6787 105.475 47.6089 108.347 47.6089C111.399 47.6089 113.98 45.8131 113.98 41.437V30.7994H111.512V31.7642ZM115.775 41.9306H118.379V24.5154H115.775V41.9306ZM122.217 36.1854C122.149 33.8961 123.99 32.7295 125.313 32.7295C126.347 32.7295 127.221 33.2453 127.512 33.9865L122.217 36.1854ZM130.296 34.2107C129.803 32.8862 128.298 30.4403 125.224 30.4403C122.171 30.4403 119.636 32.8416 119.636 36.365C119.636 39.6866 122.149 42.2897 125.515 42.2897C128.231 42.2897 129.803 40.6289 130.453 39.6641L128.433 38.3173C127.76 39.305 126.84 39.9558 125.515 39.9558C124.191 39.9558 123.249 39.3497 122.643 38.1606L130.565 34.8838L130.296 34.2107ZM67.1799 32.2582V34.7717H73.1943C73.0147 36.1854 72.5435 37.2177 71.8252 37.9359C70.9503 38.8115 69.5812 39.7763 67.1799 39.7763C63.4768 39.7763 60.5819 36.7916 60.5819 33.0886C60.5819 29.3856 63.4768 26.4005 67.1799 26.4005C69.1773 26.4005 70.6357 27.1862 71.7131 28.1961L73.486 26.4233C71.9825 24.9867 69.9849 23.887 67.1799 23.887C62.1077 23.887 57.8438 28.0165 57.8438 33.0886C57.8438 38.1606 62.1077 42.2897 67.1799 42.2897C69.918 42.2897 71.9825 41.3925 73.5981 39.7088C75.2589 38.0481 75.7753 35.7142 75.7753 33.8293C75.7753 33.2453 75.7306 32.7072 75.6403 32.2582H67.1799ZM82.6132 39.9558C80.8174 39.9558 79.2688 38.4746 79.2688 36.365C79.2688 34.233 80.8174 32.7742 82.6132 32.7742C84.4082 32.7742 85.9569 34.233 85.9569 36.365C85.9569 38.4746 84.4082 39.9558 82.6132 39.9558ZM82.6132 30.4403C79.3362 30.4403 76.6655 32.9313 76.6655 36.365C76.6655 39.7763 79.3362 42.2897 82.6132 42.2897C85.8894 42.2897 88.5602 39.7763 88.5602 36.365C88.5602 32.9313 85.8894 30.4403 82.6132 30.4403ZM95.5868 39.9558C93.7917 39.9558 92.2429 38.4746 92.2429 36.365C92.2429 34.233 93.7917 32.7742 95.5868 32.7742C97.382 32.7742 98.9306 34.233 98.9306 36.365C98.9306 38.4746 97.382 39.9558 95.5868 39.9558ZM95.5868 30.4403C92.3099 30.4403 89.6398 32.9313 89.6398 36.365C89.6398 39.7763 92.3099 42.2897 95.5868 42.2897C98.8632 42.2897 101.534 39.7763 101.534 36.365C101.534 32.9313 98.8632 30.4403 95.5868 30.4403Z" fill="white"/>
<path d="M15.3107 45.2593L15.2072 45.1602C14.8018 44.7313 14.5625 44.0653 14.5625 43.2029V43.4058V12.5975C14.5625 12.5947 14.5625 12.5926 14.5625 12.5904C14.5625 12.593 14.5625 12.5953 14.5625 12.598V12.8016C14.5625 11.8677 14.8415 11.1642 15.309 10.7424L32.5685 28.0014L15.3107 45.2593ZM14.5625 12.5887C14.5625 12.512 14.5646 12.4374 14.5685 12.364C14.5646 12.4369 14.5625 12.512 14.5625 12.5887ZM14.5685 12.3607C14.5685 12.3597 14.5685 12.3586 14.5689 12.3575C14.5685 12.3586 14.5685 12.3597 14.5685 12.3607ZM14.5689 12.3509C14.5689 12.3504 14.5689 12.3498 14.5689 12.3493C14.5689 12.3498 14.5689 12.3504 14.5689 12.3509Z" fill="url(#paint0_linear_6940_23184)"/>
<path d="M38.3226 33.96L38.4538 33.8854L45.2698 30.0127C45.9196 29.6432 46.3527 29.1954 46.5688 28.7215C46.3533 29.1954 45.92 29.6438 45.2698 30.0132L38.4538 33.886L38.3226 33.96ZM38.3242 33.7559L32.5703 28.001L38.3237 22.247L45.2698 26.1932C46.1518 26.6944 46.6471 27.3404 46.7298 28.0004C46.7298 28.001 46.7298 28.0021 46.7298 28.0031C46.6471 28.6616 46.1518 29.3081 45.2698 29.8091L38.3242 33.7559Z" fill="url(#paint1_linear_6940_23184)"/>
<path d="M16.5438 45.9165C16.0617 45.9165 15.641 45.7598 15.3129 45.4638L15.3135 45.4632C15.6415 45.7592 16.0628 45.9165 16.5449 45.9165C16.5867 45.9165 16.6292 45.9154 16.6722 45.9133C16.6286 45.9154 16.5856 45.9165 16.5438 45.9165ZM16.5444 45.7124C16.0622 45.713 15.6415 45.5557 15.3135 45.2597V45.2593L32.5712 28.0014L38.3252 33.7563L18.105 45.2451C17.5455 45.5623 17.0155 45.7124 16.5444 45.7124ZM15.3086 45.46C15.2781 45.4323 15.2481 45.4029 15.2188 45.3724L15.3086 45.46Z" fill="url(#paint2_linear_6940_23184)"/>
<path d="M32.5719 28.001L15.3125 10.742C15.6406 10.4465 16.0607 10.2898 16.5423 10.2898C17.0146 10.2898 17.5451 10.4405 18.1057 10.7583L38.3253 22.247L32.5719 28.001ZM38.4554 22.1171L18.1057 10.5549C17.5451 10.237 17.0146 10.0863 16.5423 10.0863C16.54 10.0863 16.5385 10.0863 16.5363 10.0863C16.5391 10.0863 16.5412 10.0863 16.5445 10.0863C17.0158 10.0863 17.5457 10.2364 18.1057 10.5543L38.4554 22.1171Z" fill="url(#paint3_linear_6940_23184)"/>
<path d="M16.6732 45.9131C17.1112 45.888 17.5961 45.7373 18.1059 45.4484L38.3245 33.9602L18.1059 45.4484C17.5965 45.7378 17.1112 45.888 16.6732 45.9131ZM15.3139 45.4636L15.3096 45.4598C15.3111 45.4609 15.3128 45.4624 15.3139 45.4636ZM15.2197 45.3722L15.2109 45.3635V45.363C15.2143 45.3662 15.2169 45.3694 15.2197 45.3722Z" fill="black"/>
<path d="M38.3203 33.96L38.4515 33.8854L38.3203 33.96Z" fill="url(#paint4_linear_6940_23184)"/>
<path d="M16.5459 45.9165C16.0638 45.9165 15.6425 45.7592 15.3144 45.4632L15.3139 45.4638C15.3128 45.4627 15.3111 45.4611 15.3096 45.46L15.2197 45.3724C15.2169 45.3696 15.2143 45.3664 15.2109 45.3632L15.3144 45.2597C15.6425 45.5557 16.0632 45.713 16.5453 45.7124C17.0165 45.7124 17.5465 45.5623 18.1059 45.2451L38.3261 33.7563L38.4557 33.8858L38.3245 33.9604L18.1059 45.4486C17.5961 45.7375 17.1112 45.8882 16.6732 45.9133C16.6302 45.9154 16.5877 45.9165 16.5459 45.9165Z" fill="url(#paint5_linear_6940_23184)"/>
<path d="M15.2072 45.3638C14.8018 44.9349 14.5625 44.2688 14.5625 43.4064V43.4059C14.5625 44.2688 14.8018 44.9343 15.2072 45.3632V45.3638Z" fill="black"/>
<path d="M15.2072 45.3633C14.8018 44.9344 14.5625 44.2689 14.5625 43.4059V43.203C14.5625 44.0654 14.8018 44.7314 15.2072 45.1603L15.3107 45.2594L15.2072 45.3633Z" fill="url(#paint6_linear_6940_23184)"/>
<path d="M15.2109 45.3633L15.3144 45.2594V45.2598L15.2109 45.3633Z" fill="url(#paint7_linear_6940_23184)"/>
<path d="M46.5703 28.7217C46.6774 28.4865 46.7313 28.245 46.7313 28.0033C46.7313 28.0029 46.7313 28.0023 46.7313 28.0023C46.7313 28.2444 46.6774 28.486 46.5703 28.7217Z" fill="black"/>
<path d="M38.4499 33.8857L38.3203 33.7562L45.2658 29.8094C46.1479 29.3084 46.6431 28.6619 46.7259 28.0034C46.7259 28.2451 46.672 28.4866 46.5648 28.7218C46.3488 29.1957 45.9157 29.6435 45.2658 30.013L38.4499 33.8857Z" fill="url(#paint8_linear_6940_23184)"/>
<path d="M46.7297 28.001V28.0004C46.7291 27.2717 46.2421 26.5432 45.2697 25.9903L38.4537 22.1175H38.4531L38.4537 22.1171L45.2697 25.9897C46.2433 26.5426 46.7308 27.2723 46.7297 28.001Z" fill="#404040"/>
<path d="M46.7264 28.0005C46.6437 27.3405 46.1485 26.6945 45.2664 26.1933L38.3203 22.2471L38.4499 22.1176H38.4504L45.2664 25.9903C46.2389 26.5432 46.7259 27.2718 46.7264 28.0005Z" fill="url(#paint9_linear_6940_23184)"/>
<path d="M14.5625 12.5903C14.5625 12.5898 14.5625 12.5892 14.5625 12.5887C14.5625 12.5892 14.5625 12.5898 14.5625 12.5903ZM14.5685 12.364C14.5685 12.3628 14.5685 12.3617 14.5685 12.3606C14.5685 12.3617 14.5685 12.3628 14.5685 12.364ZM14.5689 12.3574C14.5689 12.3552 14.5689 12.3531 14.5689 12.3509C14.5689 12.3531 14.5689 12.3552 14.5689 12.3574ZM14.5689 12.3492C14.6496 10.9181 15.4277 10.0915 16.5285 10.0866C16.0512 10.0894 15.6356 10.2461 15.3101 10.5394V10.5388L15.3062 10.5427C15.272 10.5736 15.2394 10.6064 15.2072 10.6401C14.8415 11.0269 14.6108 11.6064 14.5689 12.3492Z" fill="#404040"/>
<path d="M14.5625 12.8013V12.5977C14.5625 12.595 14.5625 12.5927 14.5625 12.5901C14.5625 12.5895 14.5625 12.589 14.5625 12.5884C14.5625 12.5117 14.5646 12.4366 14.5685 12.3637C14.5685 12.3626 14.5685 12.3615 14.5685 12.3604C14.5685 12.3594 14.5685 12.3583 14.5689 12.3572C14.5689 12.3549 14.5689 12.3529 14.5689 12.3506C14.5689 12.3501 14.5689 12.3495 14.5689 12.349C14.6108 11.6062 14.8415 11.0267 15.2072 10.6398L15.309 10.7421C14.8415 11.1639 14.5625 11.8674 14.5625 12.8013ZM15.3062 10.5425L15.3101 10.5386C15.309 10.5402 15.3074 10.5413 15.3062 10.5425Z" fill="url(#paint10_linear_6940_23184)"/>
<path d="M38.3256 22.2471L18.1059 10.7583C17.5454 10.4405 17.0149 10.2898 16.5425 10.2898C16.061 10.2898 15.6408 10.4465 15.3128 10.742L15.2109 10.6397C15.2431 10.606 15.2757 10.5733 15.31 10.5424C15.3111 10.5413 15.3128 10.5401 15.3139 10.539C15.6393 10.2458 16.055 10.0891 16.5322 10.0863C16.5333 10.0863 16.5349 10.0863 16.5366 10.0863C16.5388 10.0863 16.5403 10.0863 16.5425 10.0863C17.0149 10.0863 17.5454 10.237 18.1059 10.5549L38.4557 22.1171L38.4551 22.1175L38.3256 22.2471Z" fill="url(#paint11_linear_6940_23184)"/>
</g>
<defs>
<linearGradient id="paint0_linear_6940_23184" x1="31.0381" y1="12.2725" x2="7.65946" y2="35.6511" gradientUnits="userSpaceOnUse">
<stop stop-color="#00A0FF"/>
<stop offset="0.00657445" stop-color="#00A1FF"/>
<stop offset="0.2601" stop-color="#00BEFF"/>
<stop offset="0.5122" stop-color="#00D2FF"/>
<stop offset="0.7604" stop-color="#00DFFF"/>
<stop offset="1" stop-color="#00E3FF"/>
</linearGradient>
<linearGradient id="paint1_linear_6940_23184" x1="47.8045" y1="28.0018" x2="14.0973" y2="28.0018" gradientUnits="userSpaceOnUse">
<stop stop-color="#FFE000"/>
<stop offset="0.4087" stop-color="#FFBD00"/>
<stop offset="0.7754" stop-color="#FFA500"/>
<stop offset="1" stop-color="#FF9C00"/>
</linearGradient>
<linearGradient id="paint2_linear_6940_23184" x1="35.2578" y1="31.1988" x2="3.55473" y2="62.9019" gradientUnits="userSpaceOnUse">
<stop stop-color="#FF3A44"/>
<stop offset="1" stop-color="#C31162"/>
</linearGradient>
<linearGradient id="paint3_linear_6940_23184" x1="10.839" y1="0.384622" x2="24.9958" y2="14.5413" gradientUnits="userSpaceOnUse">
<stop stop-color="#32A071"/>
<stop offset="0.0685" stop-color="#2DA771"/>
<stop offset="0.4762" stop-color="#15CF74"/>
<stop offset="0.8009" stop-color="#06E775"/>
<stop offset="1" stop-color="#00F076"/>
</linearGradient>
<linearGradient id="paint4_linear_6940_23184" x1="47.8024" y1="28.0021" x2="14.0947" y2="28.0021" gradientUnits="userSpaceOnUse">
<stop stop-color="#CCB300"/>
<stop offset="0.4087" stop-color="#CC9700"/>
<stop offset="0.7754" stop-color="#CC8400"/>
<stop offset="1" stop-color="#CC7D00"/>
</linearGradient>
<linearGradient id="paint5_linear_6940_23184" x1="35.2588" y1="31.1988" x2="3.5557" y2="62.9019" gradientUnits="userSpaceOnUse">
<stop stop-color="#CC2E36"/>
<stop offset="1" stop-color="#9C0E4E"/>
</linearGradient>
<linearGradient id="paint6_linear_6940_23184" x1="31.0381" y1="12.2725" x2="7.65949" y2="35.6512" gradientUnits="userSpaceOnUse">
<stop stop-color="#008DE0"/>
<stop offset="0.00657445" stop-color="#008DE0"/>
<stop offset="0.2601" stop-color="#00A7E0"/>
<stop offset="0.5122" stop-color="#00B8E0"/>
<stop offset="0.7604" stop-color="#00C4E0"/>
<stop offset="1" stop-color="#00C7E0"/>
</linearGradient>
<linearGradient id="paint7_linear_6940_23184" x1="35.2595" y1="31.199" x2="3.55652" y2="62.9032" gradientUnits="userSpaceOnUse">
<stop stop-color="#E0333C"/>
<stop offset="1" stop-color="#AB0F56"/>
</linearGradient>
<linearGradient id="paint8_linear_6940_23184" x1="47.8006" y1="28.0021" x2="14.0934" y2="28.0021" gradientUnits="userSpaceOnUse">
<stop stop-color="#E0C500"/>
<stop offset="0.4087" stop-color="#E0A600"/>
<stop offset="0.7754" stop-color="#E09100"/>
<stop offset="1" stop-color="#E08900"/>
</linearGradient>
<linearGradient id="paint9_linear_6940_23184" x1="47.8012" y1="28.0019" x2="14.0939" y2="28.0019" gradientUnits="userSpaceOnUse">
<stop stop-color="#FFE840"/>
<stop offset="0.4087" stop-color="#FFCE40"/>
<stop offset="0.7754" stop-color="#FFBC40"/>
<stop offset="1" stop-color="#FFB540"/>
</linearGradient>
<linearGradient id="paint10_linear_6940_23184" x1="31.0381" y1="12.2722" x2="7.65947" y2="35.6508" gradientUnits="userSpaceOnUse">
<stop stop-color="#40B8FF"/>
<stop offset="0.00657445" stop-color="#40B9FF"/>
<stop offset="0.2601" stop-color="#40CEFF"/>
<stop offset="0.5122" stop-color="#40DDFF"/>
<stop offset="0.7604" stop-color="#40E7FF"/>
<stop offset="1" stop-color="#40EAFF"/>
</linearGradient>
<linearGradient id="paint11_linear_6940_23184" x1="10.8393" y1="0.384638" x2="24.996" y2="14.5414" gradientUnits="userSpaceOnUse">
<stop stop-color="#65B895"/>
<stop offset="0.0685" stop-color="#62BD95"/>
<stop offset="0.4762" stop-color="#50DB97"/>
<stop offset="0.8009" stop-color="#44ED98"/>
<stop offset="1" stop-color="#40F498"/>
</linearGradient>
<clipPath id="clip0_6940_23184">
<rect width="188.478" height="56" fill="white" transform="translate(0.53125)"/>
</clipPath>
</defs>
</svg>
